<?xml version="1.0" encoding="UTF-8"?>
<svg version="1.1" xmlns="http://www.w3.org/2000/svg" width="500" height="500">
<path d="M0 0 C2.73136839 0.00109025 5.46270213 -0.00652986 8.19406128 -0.0131073 C13.89802461 -0.02122446 19.6013428 -0.00079569 25.30517578 0.03686523 C31.86873482 0.07983043 38.43103189 0.07622925 44.99464238 0.04799765 C51.3518267 0.02183232 57.70854875 0.02984538 64.06573105 0.05269814 C66.75232019 0.06172118 69.43784461 0.05714761 72.12454605 0.04619408 C75.88607833 0.03558936 79.64542687 0.06394411 83.40673828 0.10229492 C84.50109192 0.09172058 85.59544556 0.08114624 86.72296143 0.07025146 C95.80777811 0.2307281 104.33109488 3.17246819 111.0546875 9.51953125 C112.69663137 11.59932682 113.93230688 13.44641517 114.9296875 15.89453125 C115.5896875 15.89453125 116.2496875 15.89453125 116.9296875 15.89453125 C122.15088565 23.85052819 123.7864175 29.89406037 123.515625 39.34375 C123.50713531 40.48237991 123.49864563 41.62100983 123.48989868 42.79414368 C123.456611 46.39111466 123.38137343 49.98575074 123.3046875 53.58203125 C123.27455629 56.03707675 123.24718607 58.49215777 123.22265625 60.94726562 C123.15690081 66.93046911 123.0568017 72.91233332 122.9296875 78.89453125 C124.2496875 79.22453125 125.5696875 79.55453125 126.9296875 79.89453125 C126.95674058 82.31127349 126.97655188 84.72771065 126.9921875 87.14453125 C127.00056641 87.82644531 127.00894531 88.50835937 127.01757812 89.2109375 C127.03413592 92.62184296 126.84425337 95.61601831 125.9296875 98.89453125 C126.69635742 98.88405762 127.46302734 98.87358398 128.25292969 98.86279297 C131.72848224 98.82120426 135.20398241 98.79519574 138.6796875 98.76953125 C139.88625 98.75277344 141.0928125 98.73601562 142.3359375 98.71875 C143.49609375 98.71230469 144.65625 98.70585937 145.8515625 98.69921875 C146.91987305 98.68874512 147.98818359 98.67827148 149.08886719 98.66748047 C151.90947855 98.89291606 153.53756213 99.43604131 155.9296875 100.89453125 C155.9296875 101.55453125 155.9296875 102.21453125 155.9296875 102.89453125 C156.5896875 102.89453125 157.2496875 102.89453125 157.9296875 102.89453125 C157.9296875 103.55453125 157.9296875 104.21453125 157.9296875 104.89453125 C158.5896875 104.89453125 159.2496875 104.89453125 159.9296875 104.89453125 C162.19122269 108.51131458 162.19419963 111.55890344 162.22021484 115.77099609 C162.22693207 116.45444595 162.23364929 117.13789581 162.24057007 117.84205627 C162.25953429 120.0966015 162.26347344 122.35084877 162.265625 124.60546875 C162.27205415 126.17721681 162.2787826 127.74896367 162.28579712 129.32070923 C162.297766 132.61422499 162.30147836 135.9076359 162.30029297 139.20117188 C162.30008982 143.41347296 162.32738838 147.62509903 162.36183739 151.83724022 C162.38411782 155.08355778 162.38813017 158.32971321 162.38707352 161.5760994 C162.38942789 163.1285904 162.39824231 164.68108598 162.41373825 166.23350143 C162.43342228 168.40923544 162.42755243 170.58351799 162.41552734 172.75927734 C162.41837738 173.99519623 162.42122742 175.23111511 162.42416382 176.50448608 C161.6711235 181.66720189 159.19333014 184.72566181 155.4296875 188.20703125 C151.41951214 190.91389962 147.84594005 191.04037937 143.0703125 191.2109375 C142.06516602 191.24904541 141.06001953 191.28715332 140.02441406 191.32641602 C138.7556543 191.36951904 137.48689453 191.41262207 136.1796875 191.45703125 C133.99445585 191.53478602 131.80923516 191.61284932 129.62402344 191.69116211 C127.72591146 191.75895182 125.82779948 191.82674154 123.9296875 191.89453125 C123.9309967 192.58875687 123.93230591 193.28298248 123.93365479 193.99824524 C123.96328275 212.45037469 123.94259685 230.90227505 123.74578094 249.35351372 C123.70584037 253.12917258 123.67379279 256.90457299 123.65869141 260.68041992 C123.6434689 264.42944459 123.60903029 268.17785155 123.56137848 271.9265995 C123.5467389 273.32777874 123.53865672 274.72904507 123.53780365 276.13030052 C123.52293158 288.24524641 121.33043356 297.85057261 112.9296875 306.89453125 C104.1084648 315.26984599 93.67856315 317.50209425 81.83984375 317.41210938 C80.68547821 317.41911865 79.53111267 317.42612793 78.34176636 317.43334961 C74.55832249 317.45083193 70.77563785 317.43934078 66.9921875 317.42578125 C64.34382208 317.42847895 61.69547897 317.43235865 59.04711914 317.43737793 C53.50952053 317.44462716 47.97213627 317.43513883 42.43457031 317.41601562 C36.05930303 317.39425187 29.68454769 317.4013052 23.30929279 317.42332125 C17.80656502 317.44155358 12.30399013 317.44399561 6.80124187 317.43356657 C3.52739945 317.4273743 0.25384626 317.42797941 -3.01998901 317.43971252 C-6.67382815 317.44993554 -10.32670108 317.43429496 -13.98046875 317.41210938 C-15.04572784 317.4202063 -16.11098694 317.42830322 -17.20852661 317.43664551 C-25.5997156 317.34283586 -33.02287382 315.59282371 -40.0703125 310.89453125 C-40.0703125 310.23453125 -40.0703125 309.57453125 -40.0703125 308.89453125 C-40.6271875 308.66765625 -41.1840625 308.44078125 -41.7578125 308.20703125 C-48.79897943 304.21069326 -51.91420603 297.82288857 -54.11203003 290.3548584 C-55.27460599 285.60215004 -55.33768463 281.0462733 -55.29736328 276.17382812 C-55.29765533 275.23631714 -55.29794739 274.29880615 -55.29824829 273.33288574 C-55.29686415 270.25958737 -55.28134626 267.18653684 -55.265625 264.11328125 C-55.26189161 261.97237277 -55.25904618 259.83146257 -55.25704956 257.69055176 C-55.24943876 252.07473984 -55.22981227 246.45903251 -55.2076416 240.84326172 C-55.18712806 235.10515762 -55.17803609 229.3670365 -55.16796875 223.62890625 C-55.14656391 212.38406881 -55.11245891 201.13930875 -55.0703125 189.89453125 C-55.85156494 189.92071533 -56.63281738 189.94689941 -57.43774414 189.97387695 C-61.00255961 190.07828135 -64.56705271 190.1429976 -68.1328125 190.20703125 C-69.97649414 190.26987305 -69.97649414 190.26987305 -71.85742188 190.33398438 C-79.32404955 190.43461278 -83.61403367 190.18054323 -89.0703125 184.89453125 C-93.90316898 177.64524653 -92.23075059 166.40867312 -92.23828125 158.00390625 C-92.24160965 156.70052307 -92.24493805 155.39713989 -92.24836731 154.05426025 C-92.25431014 151.31448536 -92.25621191 148.57474181 -92.25561523 145.83496094 C-92.2555131 142.33598571 -92.26923909 138.83721107 -92.28638744 135.33828354 C-92.30020265 131.97682145 -92.29959599 128.61539635 -92.30078125 125.25390625 C-92.30796677 124.00381775 -92.31515228 122.75372925 -92.32255554 121.46575928 C-92.31947891 120.29724426 -92.31640228 119.12872925 -92.31323242 117.92480469 C-92.31465744 116.90239685 -92.31608246 115.87998901 -92.31755066 114.82659912 C-91.78585096 108.52102063 -89.79424358 105.04237317 -85.0703125 100.89453125 C-81.53466787 98.53743483 -79.85005995 98.5944339 -75.65234375 98.48046875 C-74.39873047 98.44179687 -73.14511719 98.403125 -71.85351562 98.36328125 C-70.54318359 98.33234375 -69.23285156 98.30140625 -67.8828125 98.26953125 C-66.5475009 98.23133787 -65.21221358 98.19228534 -63.87695312 98.15234375 C-60.60821362 98.05793972 -57.33948186 97.97236108 -54.0703125 97.89453125 C-55.0603125 97.39953125 -55.0603125 97.39953125 -56.0703125 96.89453125 C-56.09497131 92.92522136 -56.11315273 88.95594091 -56.12524414 84.98657227 C-56.13028307 83.63532739 -56.13711427 82.28408799 -56.14575195 80.93286133 C-56.15783669 78.99432691 -56.16301078 77.05575325 -56.16796875 75.1171875 C-56.17320557 73.94937744 -56.17844238 72.78156738 -56.18383789 71.57836914 C-56.0703125 68.89453125 -56.0703125 68.89453125 -55.0703125 67.89453125 C-54.70270519 65.56635161 -54.36789669 63.23269275 -54.0703125 60.89453125 C-54.7303125 60.89453125 -55.3903125 60.89453125 -56.0703125 60.89453125 C-56.49962359 27.26516263 -56.49962359 27.26516263 -48.0703125 13.89453125 C-47.4103125 13.89453125 -46.7503125 13.89453125 -46.0703125 13.89453125 C-46.0703125 13.23453125 -46.0703125 12.57453125 -46.0703125 11.89453125 C-45.4103125 11.89453125 -44.7503125 11.89453125 -44.0703125 11.89453125 C-44.0703125 11.23453125 -44.0703125 10.57453125 -44.0703125 9.89453125 C-43.4103125 9.89453125 -42.7503125 9.89453125 -42.0703125 9.89453125 C-42.0703125 9.23453125 -42.0703125 8.57453125 -42.0703125 7.89453125 C-29.25302182 -1.36683991 -15.18267002 -0.11016756 0 0 Z " fill="#171E1F" transform="translate(232.0703125,81.10546875)"/>
<path d="M0 0 C0.95722961 -0.0071553 1.91445923 -0.01431061 2.9006958 -0.02168274 C3.94436813 -0.02437164 4.98804047 -0.02706055 6.06333923 -0.02983093 C7.72020248 -0.03968773 7.72020248 -0.03968773 9.41053772 -0.04974365 C13.0694638 -0.06946789 16.7283488 -0.08113882 20.38731384 -0.09111023 C21.63866056 -0.09518576 22.89000729 -0.09926128 24.17927361 -0.10346031 C30.12252086 -0.12216961 36.06575513 -0.13673417 42.00902468 -0.14507228 C48.84613245 -0.15482507 55.68291478 -0.18109588 62.51990801 -0.22157317 C68.45937544 -0.25551679 74.39876436 -0.2672293 80.33833122 -0.27127647 C82.85519552 -0.27613516 85.37205653 -0.28772851 87.88885689 -0.30631447 C91.42123597 -0.33077394 94.95277564 -0.32972766 98.48521423 -0.32279968 C99.51471695 -0.33560974 100.54421967 -0.3484198 101.60491943 -0.36161804 C111.48574003 -0.29138996 120.26021272 2.21165831 127.50840759 9.16279602 C136.14680932 19.13622347 136.52193522 30.08641179 136.42247009 42.70967102 C136.4187335 44.11071062 136.41588959 45.51175286 136.41389465 46.91279602 C136.40630899 50.57557059 136.38670496 54.23818304 136.36448669 57.90089417 C136.34391821 61.64832874 136.33486956 65.39578985 136.32481384 69.14326477 C136.30345352 76.47797358 136.26937992 83.81254946 136.22715759 91.14717102 C134.24715759 91.14717102 132.26715759 91.14717102 130.22715759 91.14717102 C130.22129135 90.32555481 130.21542511 89.5039386 130.2093811 88.65742493 C130.15131958 80.88959128 130.07916658 73.12207347 129.99144268 65.35452271 C129.94683998 61.36176091 129.90756213 57.36909877 129.88072205 53.37617493 C129.85458756 49.51803589 129.8141149 45.66028246 129.76397133 41.80238342 C129.74737082 40.33535075 129.73581429 38.86825149 129.72954369 37.40113831 C129.81731545 24.44651926 129.81731545 24.44651926 123.78965759 13.33467102 C116.59950173 7.19673309 111.56280417 5.84971234 102.20445251 5.82832336 C101.19910461 5.81827774 100.19375671 5.80823212 99.15794373 5.79788208 C95.84117698 5.76703792 92.524491 5.75001131 89.20762634 5.73310852 C86.90547999 5.71439789 84.60334049 5.69482456 82.3012085 5.67442322 C76.24649603 5.62308507 70.19176133 5.58346821 64.13694763 5.54627991 C57.95667512 5.50625092 51.77649525 5.4551535 45.59629822 5.40498352 C33.47331641 5.30820424 21.35028231 5.22380573 9.22715759 5.14717102 C9.5442835 6.58610159 9.86213106 8.02487312 10.18028259 9.46357727 C10.44566833 10.66542664 10.44566833 10.66542664 10.71641541 11.89155579 C11.55943589 15.67594886 11.55943589 15.67594886 13.22715759 19.14717102 C18.69087352 21.65939049 24.19993685 21.49294795 30.09434509 21.56123352 C31.12906952 21.58059967 32.16379395 21.59996582 33.22987366 21.61991882 C36.52055226 21.67948944 39.81126627 21.72601007 43.10215759 21.77217102 C45.33915165 21.8103715 47.57613132 21.84942443 49.81309509 21.88935852 C55.28432117 21.9851724 60.75563454 22.07028533 66.22715759 22.14717102 C64.56668747 25.62340704 62.58118464 28.30943138 60.10215759 31.27217102 C59.30809509 32.23510071 58.51403259 33.1980304 57.69590759 34.19013977 C56.08421587 36.12059964 54.45970841 38.04045197 52.82090759 39.94795227 C52.08872009 40.81806946 51.35653259 41.68818665 50.60215759 42.58467102 C49.92926697 43.36713196 49.25637634 44.1495929 48.56309509 44.95576477 C47.00231954 47.03774078 47.00231954 47.03774078 47.39122009 49.36982727 C48.09297862 51.33801424 48.09297862 51.33801424 50.22715759 52.14717102 C53.58557765 52.10657473 56.93190787 52.02142839 60.28575134 51.84443665 C63.9742887 51.75273268 65.80690035 51.81004878 68.73497009 54.15888977 C69.22739197 54.81502258 69.71981384 55.4711554 70.22715759 56.14717102 C69.56715759 56.14717102 68.90715759 56.14717102 68.22715759 56.14717102 C66.87896539 60.19174762 66.65686251 63.91809967 67.22715759 68.14717102 C69.04306738 71.17407545 69.04306738 71.17407545 71.22715759 73.14717102 C69.76941938 77.27742928 68.00935818 80.74670363 65.22715759 84.14717102 C60.6918844 85.65892875 56.87775274 84.81154176 52.22715759 84.14717102 C50.77309509 84.64217102 50.77309509 84.64217102 49.28965759 85.14717102 C46.22715759 85.14717102 46.22715759 85.14717102 44.07481384 83.21357727 C42.03581937 80.91657295 40.0977116 78.58268931 38.22715759 76.14717102 C37.69606384 76.88322571 37.16497009 77.6192804 36.61778259 78.37763977 C35.91137634 79.35346008 35.20497009 80.3292804 34.47715759 81.33467102 C33.78106384 82.29760071 33.08497009 83.2605304 32.36778259 84.25263977 C31.66137634 85.20783508 30.95497009 86.1630304 30.22715759 87.14717102 C29.65586121 88.02478088 29.08456482 88.90239075 28.49595642 89.80659485 C26.22715759 92.14717102 26.22715759 92.14717102 23.29136658 92.6530304 C22.13451355 92.5995343 20.97766052 92.54603821 19.78575134 92.49092102 C19.13940231 92.46928894 18.49305328 92.44765686 17.82711792 92.42536926 C16.39862759 92.37660669 14.9704675 92.31736396 13.54277039 92.2492218 C10.24794996 92.10401661 6.95275573 92.04765193 3.65553284 91.98262024 C-0.80028365 91.8912537 -5.25520362 91.76650867 -9.71034241 91.64717102 C-11.56906176 91.59881673 -13.42778571 91.55063856 -15.28651428 91.50263977 C-19.78201234 91.38617463 -24.27744207 91.26734667 -28.77284241 91.14717102 C-28.86599541 82.73187439 -28.93683478 74.31679732 -28.98009109 65.90111065 C-29.00086409 61.99230271 -29.02899009 58.08385048 -29.07460022 54.17524719 C-29.11842983 50.3950742 -29.14205663 46.61524086 -29.15235138 42.83483315 C-29.15967688 41.40087865 -29.17397974 39.96694031 -29.19576263 38.53313255 C-29.36585798 26.86053761 -28.13192012 16.64325582 -19.77284241 7.86982727 C-13.91432241 2.82371923 -7.72205159 0.03975548 0 0 Z " fill="#545555" transform="translate(212.77284240722656,88.85282897949219)"/>
<path d="M0 0 C30.36 0 60.72 0 92 0 C89.03071844 11.87712623 89.03071844 11.87712623 84.1875 17.125 C81.47458723 20.14528713 79.80179002 23.21039964 78.0625 26.875 C75.68877568 31.87363639 72.94533549 36.00628437 69.41796875 40.2578125 C67.93217724 41.95418401 67.93217724 41.95418401 67 44 C63.04 43.67 59.08 43.34 55 43 C54.505 41.02 54.505 41.02 54 39 C53.67 38.01 53.34 37.02 53 36 C47.68588506 37.92391649 47.68588506 37.92391649 44 42 C44.34605611 44.28397032 44.96704519 45.93409037 46 48 C39.25 47.25 39.25 47.25 37 45 C37.18938899 40.33629619 39.3302 38.180675 42.5 34.9375 C47.91032471 29.3816444 52.41473101 23.24043003 57 17 C56.13675613 17.00999275 56.13675613 17.00999275 55.256073 17.02018738 C49.2537801 17.08667725 43.25159225 17.13185721 37.24902344 17.16479492 C35.01037342 17.17985964 32.77175281 17.20031533 30.53320312 17.22631836 C27.31112398 17.26280283 24.08943589 17.27974983 20.8671875 17.29296875 C19.37153763 17.31619453 19.37153763 17.31619453 17.84567261 17.33988953 C12.46934378 17.34118481 8.63098788 17.06451404 4 14 C2.5390625 12.16796875 2.5390625 12.16796875 1.625 10.1875 C1.30789062 9.54167969 0.99078125 8.89585938 0.6640625 8.23046875 C0 6 0 6 0 0 Z " fill="#0C1315" transform="translate(222,94)"/>
<path d="M0 0 C1.18464844 -0.00773438 2.36929687 -0.01546875 3.58984375 -0.0234375 C8.68600096 0.56127345 11.94411983 2.13571386 15.375 5.9375 C17.62117052 9.18196854 18.19133145 10.84106101 18.23950195 14.72949219 C18.25875481 16.08164825 18.25875481 16.08164825 18.27839661 17.46112061 C18.28578354 18.43816956 18.29317047 19.41521851 18.30078125 20.421875 C18.308853 21.42583313 18.31692474 22.42979126 18.32524109 23.46417236 C18.33908842 25.59263377 18.34980766 27.72111744 18.35766602 29.84960938 C18.37485757 33.09808748 18.41873592 36.34554238 18.46289062 39.59375 C18.47301934 41.66145085 18.48153488 43.72916035 18.48828125 45.796875 C18.50578934 46.76582703 18.52329742 47.73477905 18.54133606 48.73309326 C18.52296474 54.472912 17.95600213 57.85133311 14.0625 62.375 C8.35778063 67.40058612 4.78020181 67.7268708 -2.73046875 67.65234375 C-8.18537182 67.18060426 -10.6111748 64.9201383 -14.05664062 60.90625 C-16.93192214 56.46312375 -16.51027142 51.62882529 -16.46875 46.5 C-16.4725769 45.45730957 -16.47640381 44.41461914 -16.48034668 43.34033203 C-16.48306178 41.14159171 -16.47572885 38.94281886 -16.45898438 36.74414062 C-16.43757004 33.38598353 -16.45880079 30.02996585 -16.484375 26.671875 C-16.48173165 24.5312453 -16.47660654 22.39061692 -16.46875 20.25 C-16.47684692 19.24984863 -16.48494385 18.24969727 -16.49328613 17.21923828 C-16.41384695 11.28947164 -15.86270807 7.90335312 -11.9375 3.375 C-8.03303396 0.25406088 -4.93208809 -0.03213087 0 0 Z " fill="#DBDDDE" transform="translate(280.9375,191.625)"/>
<path d="M0 0 C1.65 0 3.3 0 5 0 C5.00364563 1.16796112 5.00729126 2.33592224 5.01104736 3.53927612 C5.04806975 14.5734349 5.10592166 25.60731646 5.18390274 36.64126396 C5.22332662 42.31326286 5.25554017 47.98510769 5.27099609 53.65722656 C5.28619602 59.1363343 5.32070119 64.61501832 5.36830902 70.09393692 C5.38308837 72.1789493 5.39103903 74.26402218 5.39188385 76.34908676 C5.39426562 79.28119253 5.42144266 82.21213872 5.45410156 85.14404297 C5.4490712 85.99641037 5.44404083 86.84877777 5.43885803 87.72697449 C5.55326481 94.41312527 6.97948926 101.3387677 11.34088516 106.62531853 C18.27820964 112.8110598 25.15989492 113.44108813 34.0090332 113.38818359 C35.09614594 113.39344055 36.18325867 113.39869751 37.30331421 113.40411377 C40.88595076 113.41728343 44.46814041 113.40858421 48.05078125 113.3984375 C50.55030909 113.40045954 53.04983636 113.40337206 55.54936218 113.40713501 C60.78547692 113.41155464 66.02147639 113.4054286 71.25756836 113.39111328 C76.6222347 113.37661465 81.98665211 113.37657536 87.35131836 113.39111328 C93.84334449 113.40855153 100.33518882 113.41120616 106.82723045 113.4014473 C109.29465974 113.39945284 111.76209685 113.40187791 114.22951698 113.40888596 C117.68747816 113.41655042 121.14486454 113.4048246 124.6027832 113.38818359 C125.61246658 113.39425629 126.62214996 113.40032898 127.66242981 113.40658569 C136.46292862 113.32858355 144.96619815 112.06181567 151.54461288 105.78089046 C156.4638513 99.76144402 157.59177602 93.08360973 157.54589844 85.53295898 C157.56140495 84.18499489 157.56140495 84.18499489 157.57722473 82.80979919 C157.60646561 79.8717104 157.60814793 76.93431609 157.609375 73.99609375 C157.62436929 71.94628094 157.64109905 69.89648015 157.65948486 67.84669495 C157.70303021 62.47589539 157.72312908 57.10525879 157.73822021 51.73431396 C157.75783755 46.24400244 157.79980234 40.75386571 157.83984375 35.26367188 C157.91500704 24.50916867 157.96538252 13.75470485 158 3 C159.65 3 161.3 3 163 3 C163.13948218 14.91829368 163.24586513 26.83639078 163.31087303 38.75533676 C163.34208564 44.29079932 163.38437379 49.82570037 163.45263672 55.36083984 C163.51818915 60.71013092 163.55378164 66.05888447 163.56926346 71.40854645 C163.58028565 73.44178978 163.60180875 75.47500619 163.63438034 77.50801849 C163.82924732 90.18375471 163.6448794 99.90016439 155.26156616 110.11907959 C148.1024399 117.2567814 138.10266035 119.44289047 128.27874756 119.50086975 C126.74471283 119.47941139 126.74471283 119.47941139 125.1796875 119.45751953 C123.50885101 119.45822197 123.50885101 119.45822197 121.80426025 119.4589386 C118.16075129 119.45449667 114.51830996 119.42012267 110.875 119.3828125 C108.32015493 119.36811677 105.76530425 119.35436921 103.21044922 119.34152222 C97.87119632 119.30958952 92.53236646 119.26232393 87.19335938 119.20410156 C81.051642 119.13750834 74.91051531 119.10758769 68.76846886 119.09564698 C62.82016105 119.08258944 56.87241754 119.03628476 50.92437744 118.97719955 C48.41121402 118.95610732 45.89795543 118.94417243 43.38470459 118.94183731 C16.30952032 118.8899252 16.30952032 118.8899252 7.11962891 110.22756958 C-2.25149471 99.14703521 -1.55365735 85.73138477 -1.42578125 72.08984375 C-1.42085073 70.07011742 -1.41755616 68.0503865 -1.41581726 66.03065491 C-1.40821399 61.82049717 -1.38775581 57.61068389 -1.35668945 53.40063477 C-1.31688738 47.99676207 -1.29903965 42.59311154 -1.28938007 37.18910885 C-1.27943202 32.03099034 -1.25954988 26.87292618 -1.23828125 21.71484375 C-1.2348855 20.72920881 -1.23148975 19.74357388 -1.2279911 18.72807121 C-1.21645846 15.95398273 -1.19794973 13.18003726 -1.17700195 10.40600586 C-1.17431305 9.5795607 -1.17162415 8.75311554 -1.16885376 7.90162659 C-1.1149254 2.2298508 -1.1149254 2.2298508 0 0 Z " fill="#E2E4E3" transform="translate(185,272)"/>
<path d="M0 0 C4.29 0 8.58 0 13 0 C16.70053943 11.98974774 20.34934732 23.99496907 24 36 C24.33 24.45 24.66 12.9 25 1 C28.3 1 31.6 1 35 1 C35 22.78 35 44.56 35 67 C31.37 67 27.74 67 24 67 C22.7675386 63.04266738 21.53900845 59.08417807 20.3125 55.125 C19.80299805 53.49111328 19.80299805 53.49111328 19.28320312 51.82421875 C16.32455013 42.25698571 13.68401836 32.66246609 11 23 C11 37.52 11 52.04 11 67 C7.37 67 3.74 67 0 67 C0 44.89 0 22.78 0 0 Z " fill="#F0F2F2" transform="translate(307,192)"/>
<path d="M0 0 C26.80969666 0 26.80969666 0 32.97290039 5.88330078 C35.20306872 10.47934533 34.4675623 15.8737269 34.4375 20.875 C34.4674707 22.63263672 34.4674707 22.63263672 34.49804688 24.42578125 C34.49438738 30.87380356 34.48711907 35.18080172 30 40 C23.05996886 45.24043168 20.40502183 45 11 45 C11 52.26 11 59.52 11 67 C7.37 67 3.74 67 0 67 C0 44.89 0 22.78 0 0 Z " fill="#F4F6F6" transform="translate(179,192)"/>
<path d="M0 0 C0.95722961 -0.0071553 1.91445923 -0.01431061 2.9006958 -0.02168274 C3.94436813 -0.02437164 4.98804047 -0.02706055 6.06333923 -0.02983093 C7.72020248 -0.03968773 7.72020248 -0.03968773 9.41053772 -0.04974365 C13.0694638 -0.06946789 16.7283488 -0.08113882 20.38731384 -0.09111023 C21.63866056 -0.09518576 22.89000729 -0.09926128 24.17927361 -0.10346031 C30.12252086 -0.12216961 36.06575513 -0.13673417 42.00902468 -0.14507228 C48.84613245 -0.15482507 55.68291478 -0.18109588 62.51990801 -0.22157317 C68.45937544 -0.25551679 74.39876436 -0.2672293 80.33833122 -0.27127647 C82.85519552 -0.27613516 85.37205653 -0.28772851 87.88885689 -0.30631447 C91.42123597 -0.33077394 94.95277564 -0.32972766 98.48521423 -0.32279968 C99.51471695 -0.33560974 100.54421967 -0.3484198 101.60491943 -0.36161804 C111.48574003 -0.29138996 120.26021272 2.21165831 127.50840759 9.16279602 C136.14680932 19.13622347 136.52193522 30.08641179 136.42247009 42.70967102 C136.4187335 44.11071062 136.41588959 45.51175286 136.41389465 46.91279602 C136.40630899 50.57557059 136.38670496 54.23818304 136.36448669 57.90089417 C136.34391821 61.64832874 136.33486956 65.39578985 136.32481384 69.14326477 C136.30345352 76.47797358 136.26937992 83.81254946 136.22715759 91.14717102 C134.24715759 91.14717102 132.26715759 91.14717102 130.22715759 91.14717102 C130.22129135 90.32555481 130.21542511 89.5039386 130.2093811 88.65742493 C130.15131958 80.88959128 130.07916658 73.12207347 129.99144268 65.35452271 C129.94683998 61.36176091 129.90756213 57.36909877 129.88072205 53.37617493 C129.85458756 49.51803589 129.8141149 45.66028246 129.76397133 41.80238342 C129.74737082 40.33535075 129.73581429 38.86825149 129.72954369 37.40113831 C129.81731545 24.44651926 129.81731545 24.44651926 123.78965759 13.33467102 C118.5309788 8.84555498 114.33441179 5.90770753 107.19998169 5.87974548 C106.21179947 5.87121552 105.22361725 5.86268555 104.20549011 5.85389709 C102.5962265 5.85525665 102.5962265 5.85525665 100.95445251 5.85664368 C99.8156514 5.84992645 98.67685028 5.84320923 97.50354004 5.83628845 C93.7381911 5.81728801 89.97302024 5.81338313 86.20762634 5.81123352 C83.58834764 5.80480685 80.96906967 5.79807859 78.34979248 5.7910614 C72.85797467 5.77828066 67.36620506 5.77529542 61.87437439 5.77656555 C55.54010358 5.77776613 49.20617395 5.75667787 42.87198943 5.72507823 C36.76428091 5.69570157 30.6567352 5.68859143 24.54895973 5.689785 C21.95705587 5.68742704 19.36514939 5.67859259 16.77329063 5.66312027 C13.14458938 5.64348753 9.51676211 5.64928885 5.88804626 5.66133118 C4.82127655 5.65009216 3.75450684 5.63885315 2.65541077 5.62727356 C-4.74130861 5.68953356 -10.04024412 6.92618369 -15.79627991 11.89326477 C-16.24229553 12.45142883 -16.68831116 13.0095929 -17.14784241 13.58467102 C-17.60932678 14.14025696 -18.07081116 14.6958429 -18.54627991 15.26826477 C-21.49155176 19.77997102 -22.03312132 23.70926497 -22.09169006 29.04878235 C-22.10173569 29.72250885 -22.11178131 30.39623535 -22.12213135 31.09037781 C-22.15286675 33.30331112 -22.16997119 35.51612398 -22.18690491 37.72920227 C-22.20562436 39.26906361 -22.22519835 40.80891478 -22.24559021 42.34875488 C-22.29683546 46.39119967 -22.33650172 50.43367768 -22.37373352 54.47627258 C-22.413821 58.60558745 -22.46489166 62.734765 -22.51502991 66.8639679 C-22.61169907 74.958275 -22.69613249 83.05265027 -22.77284241 91.14717102 C-24.75284241 91.14717102 -26.73284241 91.14717102 -28.77284241 91.14717102 C-28.86599541 82.73187439 -28.93683478 74.31679732 -28.98009109 65.90111065 C-29.00086409 61.99230271 -29.02899009 58.08385048 -29.07460022 54.17524719 C-29.11842983 50.3950742 -29.14205663 46.61524086 -29.15235138 42.83483315 C-29.15967688 41.40087865 -29.17397974 39.96694031 -29.19576263 38.53313255 C-29.36585798 26.86053761 -28.13192012 16.64325582 -19.77284241 7.86982727 C-13.91432241 2.82371923 -7.72205159 0.03975548 0 0 Z " fill="#F2F5F5" transform="translate(212.77284240722656,88.85282897949219)"/>
<path d="M0 0 C7.19838353 -0.47636362 13.03415444 -0.39257406 19 4 C20.6919239 5.64102074 22.36312621 7.30406375 24 9 C23.20335937 9.90621094 22.40671875 10.81242187 21.5859375 11.74609375 C16.3317767 17.7719025 11.21449253 23.64251244 7.0859375 30.5234375 C6.72757812 31.01070312 6.36921875 31.49796875 6 32 C5.34 32 4.68 32 4 32 C3.67128906 33.04414062 3.67128906 33.04414062 3.3359375 34.109375 C1.66924965 37.71565865 -0.73187756 40.34281641 -3.375 43.25 C-8.05525794 48.53345004 -12.24938476 53.9989656 -16.25 59.8125 C-20.45914611 65.92650018 -24.82174153 71.65420964 -30 77 C-31.32 76.34 -32.64 75.68 -34 75 C-33.46375 74.2575 -32.9275 73.515 -32.375 72.75 C-30.67579172 70.15460837 -30.67579172 70.15460837 -31.6875 67.875 C-32.120625 67.25625 -32.55375 66.6375 -33 66 C-35.67548031 61.98677954 -35.58740465 58.71626345 -35 54 C-33.5 51.4375 -33.5 51.4375 -32 50 C-35.99465967 47.33689355 -38.73893865 47.96545226 -43.40625 48.22265625 C-46 48 -46 48 -47.84375 46.6484375 C-49 45 -49 45 -49 42.5625 C-47.67888597 39.17714531 -46.05270603 37.91681541 -43 36 C-41.68 36 -40.36 36 -39 36 C-37.1875 37.8125 -37.1875 37.8125 -36 40 C-36.33 40.99 -36.66 41.98 -37 43 C-36.38511719 42.98839844 -35.77023437 42.97679687 -35.13671875 42.96484375 C-34.32847656 42.95582031 -33.52023437 42.94679687 -32.6875 42.9375 C-31.88699219 42.92589844 -31.08648437 42.91429687 -30.26171875 42.90234375 C-28 43 -28 43 -25 44 C-24.79375 43.34 -24.5875 42.68 -24.375 42 C-23.17720388 39.38662664 -22.07195939 37.71457288 -20.3125 35.5 C-17.58308524 32.00023947 -15.54014338 28.37755518 -13.5 24.4375 C-11.54628813 20.68102529 -9.74083047 17.43610112 -6.8125 14.375 C-2.9851693 10.32192862 -1.61019046 5.23785484 0 0 Z " fill="#444646" transform="translate(314,94)"/>
<path d="M0 0 C3.63 0 7.26 0 11 0 C11 9.57 11 19.14 11 29 C14.96 29 18.92 29 23 29 C23 19.76 23 10.52 23 1 C26.63 1 30.26 1 34 1 C34 22.78 34 44.56 34 67 C30.37 67 26.74 67 23 67 C23 57.76 23 48.52 23 39 C19.04 39 15.08 39 11 39 C11 48.24 11 57.48 11 67 C7.37 67 3.74 67 0 67 C0 44.89 0 22.78 0 0 Z " fill="#F8FAFA" transform="translate(222,192)"/>
<path d="M0 0 C2.73136839 0.00109025 5.46270213 -0.00652986 8.19406128 -0.0131073 C13.89802461 -0.02122446 19.6013428 -0.00079569 25.30517578 0.03686523 C31.86873482 0.07983043 38.43103189 0.07622925 44.99464238 0.04799765 C51.3518267 0.02183232 57.70854875 0.02984538 64.06573105 0.05269814 C66.75232019 0.06172118 69.43784461 0.05714761 72.12454605 0.04619408 C75.88607833 0.03558936 79.64542687 0.06394411 83.40673828 0.10229492 C84.50109192 0.09172058 85.59544556 0.08114624 86.72296143 0.07025146 C95.80777811 0.2307281 104.33109488 3.17246819 111.0546875 9.51953125 C112.69663137 11.59932682 113.93230688 13.44641517 114.9296875 15.89453125 C115.5896875 15.89453125 116.2496875 15.89453125 116.9296875 15.89453125 C119.9296875 20.27914663 119.9296875 20.27914663 119.9296875 22.89453125 C116.9296875 21.89453125 116.9296875 21.89453125 114.9296875 20.89453125 C113.9396875 21.88453125 112.9496875 22.87453125 111.9296875 23.89453125 C111.1253125 22.56421875 111.1253125 22.56421875 110.3046875 21.20703125 C105.38661505 13.97457176 99.18850705 11.17174051 90.9296875 8.89453125 C87.02319514 8.38360255 83.18703769 8.35563436 79.2512207 8.39282227 C78.14080414 8.38741928 77.03038757 8.3820163 75.88632202 8.37644958 C72.25075851 8.36403911 68.61599868 8.38039973 64.98046875 8.3984375 C62.43702656 8.39828237 59.89358413 8.39679103 57.35014343 8.39402771 C52.03531469 8.39264726 46.72076453 8.40470505 41.40600586 8.42797852 C35.27954044 8.45462235 29.15345376 8.45631809 23.02695018 8.44459015 C17.10503197 8.43377933 11.18322833 8.44012641 5.26131248 8.45414543 C2.75315942 8.45865118 0.24499525 8.45900442 -2.2631588 8.45508003 C-5.76901261 8.45216111 -9.27425311 8.46870698 -12.7800293 8.49047852 C-13.80932053 8.48597687 -14.83861176 8.48147522 -15.89909363 8.47683716 C-25.85252548 8.57923893 -33.43363419 11.36825004 -40.6953125 18.45703125 C-45.12961142 24.07857795 -47.31074388 31.86852153 -48.0703125 38.89453125 C-51.8203125 40.01953125 -51.8203125 40.01953125 -54.0703125 38.89453125 C-54.4003125 46.15453125 -54.7303125 53.41453125 -55.0703125 60.89453125 C-55.4003125 60.89453125 -55.7303125 60.89453125 -56.0703125 60.89453125 C-56.49962359 27.26516263 -56.49962359 27.26516263 -48.0703125 13.89453125 C-47.4103125 13.89453125 -46.7503125 13.89453125 -46.0703125 13.89453125 C-46.0703125 13.23453125 -46.0703125 12.57453125 -46.0703125 11.89453125 C-45.4103125 11.89453125 -44.7503125 11.89453125 -44.0703125 11.89453125 C-44.0703125 11.23453125 -44.0703125 10.57453125 -44.0703125 9.89453125 C-43.4103125 9.89453125 -42.7503125 9.89453125 -42.0703125 9.89453125 C-42.0703125 9.23453125 -42.0703125 8.57453125 -42.0703125 7.89453125 C-29.25302182 -1.36683991 -15.18267002 -0.11016756 0 0 Z " fill="#1D2224" transform="translate(232.0703125,81.10546875)"/>
<path d="M0 0 C9.24 0 18.48 0 28 0 C28 2.97 28 5.94 28 9 C22.39 9 16.78 9 11 9 C11 15.93 11 22.86 11 30 C15.29 30 19.58 30 24 30 C24 32.97 24 35.94 24 39 C19.71 39 15.42 39 11 39 C11 44.94 11 50.88 11 57 C16.61 57 22.22 57 28 57 C28 60.3 28 63.6 28 67 C18.76 67 9.52 67 0 67 C0 44.89 0 22.78 0 0 Z " fill="#FCFDFE" transform="translate(351,192)"/>
<path d="M0 0 C21.78 0 43.56 0 66 0 C66 1.32 66 2.64 66 4 C66.185625 4.86625 66.37125 5.7325 66.5625 6.625 C67 9 67 9 66 11 C63.24305242 12.18154896 62.13229609 12.04510094 59.25 11.0625 C58.5075 10.711875 57.765 10.36125 57 10 C57 10.99 57 11.98 57 13 C56.67 13.33 56.34 13.66 56 14 C56.495 14.99 56.495 14.99 57 16 C63.93 16.33 70.86 16.66 78 17 C78 17.33 78 17.66 78 18 C63.8862432 18.04151919 49.77668958 17.98288541 35.66479492 17.73754883 C33.56982842 17.70375107 31.4747587 17.67590254 29.37963867 17.65356445 C26.29567784 17.62008186 23.21252645 17.56792101 20.12890625 17.51171875 C19.19768448 17.50532883 18.26646271 17.4989389 17.30702209 17.49235535 C12.14114376 17.37519085 8.47061825 16.87799657 4 14 C2.5390625 12.16796875 2.5390625 12.16796875 1.625 10.1875 C1.30789062 9.54167969 0.99078125 8.89585938 0.6640625 8.23046875 C0 6 0 6 0 0 Z " fill="#0E1416" transform="translate(222,94)"/>
<path d="M0 0 C0.66 0 1.32 0 2 0 C2 22.11 2 44.22 2 67 C5.3 67 8.6 67 12 67 C13 70 13 70 12 73 C12.495 73.99 12.495 73.99 13 75 C8.05 75.495 8.05 75.495 3 76 C3 81.94 3 87.88 3 94 C1.68 93.34 0.36 92.68 -1 92 C-1.825 91.835 -2.65 91.67 -3.5 91.5 C-5.97517916 91.00496417 -7.80504887 90.21941729 -10 89 C-10 86 -10 86 -9 85 C-8.58297878 82.0842309 -8.58297878 82.0842309 -9 79 C-11.63228537 76.17273053 -14.2404812 75.52215539 -18 75 C-17.01 73.68 -16.02 72.36 -15 71 C-15.66 70.34 -16.32 69.68 -17 69 C-15.43730295 64.78071796 -12.37951905 62.81626588 -9 60 C-7.17260817 57.07780412 -6.74247246 54.83897191 -6.70947266 51.41845703 C-6.69671295 50.51717072 -6.68395325 49.6158844 -6.67080688 48.68728638 C-6.66858124 47.72056 -6.66635559 46.75383362 -6.6640625 45.7578125 C-6.6574057 44.75668427 -6.6507489 43.75555603 -6.64389038 42.72409058 C-6.63377183 40.60758296 -6.62907311 38.4910435 -6.62939453 36.37451172 C-6.62502525 33.14366823 -6.5887072 29.91419527 -6.55078125 26.68359375 C-6.5449121 24.62500466 -6.54094337 22.5664091 -6.5390625 20.5078125 C-6.52469147 19.54513458 -6.51032043 18.58245667 -6.49551392 17.59060669 C-6.5356546 11.66995363 -7.30115479 8.63157358 -11 4 C-11 3.34 -11 2.68 -11 2 C-9.8553125 2.0309375 -9.8553125 2.0309375 -8.6875 2.0625 C-5.89814214 2.12942841 -5.89814214 2.12942841 -3 1 C-2.34 1.33 -1.68 1.66 -1 2 C-0.67 1.34 -0.34 0.68 0 0 Z M-1 89 C-1 89.66 -1 90.32 -1 91 C-0.34 90.67 0.32 90.34 1 90 C0.34 89.67 -0.32 89.34 -1 89 Z " fill="#13191A" transform="translate(305,192)"/>
<path d="M0 0 C1.09763672 -0.02449219 2.19527344 -0.04898438 3.32617188 -0.07421875 C4.91075195 -0.08001953 4.91075195 -0.08001953 6.52734375 -0.0859375 C7.492771 -0.09415527 8.45819824 -0.10237305 9.45288086 -0.11083984 C12.7535285 0.50365064 13.94105114 1.84679659 16.0625 4.375 C15.4025 4.375 14.7425 4.375 14.0625 4.375 C12.7143078 8.4195766 12.49220491 12.14592865 13.0625 16.375 C14.87840979 19.40190443 14.87840979 19.40190443 17.0625 21.375 C15.60476179 25.50525826 13.84470059 28.97453261 11.0625 32.375 C6.52722681 33.88675773 2.71309514 33.03937073 -1.9375 32.375 C-3.3915625 32.87 -3.3915625 32.87 -4.875 33.375 C-7.9375 33.375 -7.9375 33.375 -10.01953125 31.65234375 C-16.44780093 24.71444549 -18.3739882 19.33073667 -18.1953125 9.9375 C-17.87252706 6.72920835 -17.05609785 4.8074642 -14.9375 2.375 C-10.27688611 -0.73207593 -5.48191488 0.00641535 0 0 Z " fill="#F9FAFA" transform="translate(266.9375,140.625)"/>
<path d="M0 0 C1.80404297 -0.02513672 1.80404297 -0.02513672 3.64453125 -0.05078125 C8.65314718 0.46278135 11.78201184 1.90238485 15.33813477 5.47021484 C17.69083011 9.08606688 17.64872097 11.29332629 17.578125 15.58203125 C17.57246521 16.26303391 17.56680542 16.94403656 17.56097412 17.64567566 C17.53870481 19.80618645 17.48853318 21.96499646 17.4375 24.125 C17.41742247 25.59567905 17.39917389 27.06638429 17.3828125 28.53710938 C17.33887326 32.1294525 17.26991456 35.72081006 17.1875 39.3125 C13.8875 39.3125 10.5875 39.3125 7.1875 39.3125 C6.6925 25.4525 6.6925 25.4525 6.1875 11.3125 C3.20537087 9.82143543 0.47140342 10.19308533 -2.8125 10.3125 C-4.64469646 12.14469646 -4.05151328 15.06963741 -4.12890625 17.53515625 C-4.17080078 18.79521484 -4.21269531 20.05527344 -4.25585938 21.35351562 C-4.29567596 22.69400736 -4.33538814 24.0345022 -4.375 25.375 C-4.41818042 26.71941523 -4.46179456 28.0638166 -4.50585938 29.40820312 C-4.61235358 32.7095234 -4.7143646 36.01092236 -4.8125 39.3125 C-8.1125 39.3125 -11.4125 39.3125 -14.8125 39.3125 C-14.93647147 34.84685699 -15.02700992 30.38213561 -15.0871582 25.9152832 C-15.11224109 24.39720199 -15.1463166 22.87924082 -15.18969727 21.36157227 C-15.25063293 19.17434035 -15.27876895 16.98870961 -15.30078125 14.80078125 C-15.32696533 13.48634033 -15.35314941 12.17189941 -15.38012695 10.81762695 C-14.66941569 6.42894669 -13.21364718 5.07360772 -9.8125 2.3125 C-6.18030895 -0.1089607 -4.32091442 0.01380484 0 0 Z " fill="#FAFCFC" transform="translate(280.8125,191.6875)"/>
<path d="M0 0 C3.63 0 7.26 0 11 0 C11 22.11 11 44.22 11 67 C7.37 67 3.74 67 0 67 C0 44.89 0 22.78 0 0 Z " fill="#FDFEFE" transform="translate(159,192)"/>
<path d="M0 0 C14.80409434 -0.09370222 29.60814909 -0.1641054 44.41248035 -0.20724869 C51.28737654 -0.22781896 58.1620878 -0.25583255 65.03686523 -0.30175781 C71.67637893 -0.34609007 78.31575158 -0.36916503 84.95541954 -0.37950897 C87.48345645 -0.3868768 90.01148335 -0.40126429 92.53943825 -0.42292023 C96.09137951 -0.45212703 99.64253728 -0.45594865 103.19458008 -0.45410156 C104.74826042 -0.47567322 104.74826042 -0.47567322 106.33332825 -0.49768066 C116.2360225 -0.44227331 125.01584012 2.04797782 132.28125 9.015625 C140.91965173 18.98905245 141.29477762 29.93924077 141.1953125 42.5625 C141.19157591 43.9635396 141.18873199 45.36458184 141.18673706 46.765625 C141.1791514 50.42839956 141.15954737 54.09101202 141.1373291 57.75372314 C141.11676062 61.50115772 141.10771197 65.24861883 141.09765625 68.99609375 C141.07629592 76.33080256 141.04222233 83.66537844 141 91 C139.02 91 137.04 91 135 91 C134.99413376 90.17838379 134.98826752 89.35676758 134.98222351 88.51025391 C134.92416199 80.74242026 134.85200899 72.97490245 134.76428509 65.20735168 C134.71968239 61.21458989 134.68040454 57.22192775 134.65356445 53.22900391 C134.62742997 49.37086487 134.58695731 45.51311144 134.53681374 41.6552124 C134.52021322 40.18817973 134.50865669 38.72108047 134.50238609 37.25396729 C134.59015786 24.29934824 134.59015786 24.29934824 128.5625 13.1875 C122.80357491 8.27134444 118.58770144 5.77748697 110.83276367 5.68115234 C109.61187546 5.66128265 108.39098724 5.64141296 107.13310242 5.62094116 C105.82460831 5.60938995 104.5161142 5.59783875 103.16796875 5.5859375 C101.80746806 5.56721453 100.44697883 5.54764027 99.08650208 5.5272522 C95.51753521 5.47604398 91.94853074 5.43635813 88.37939453 5.39910889 C84.73265365 5.35899799 81.08606766 5.30793808 77.43945312 5.2578125 C70.29308232 5.16118739 63.14661425 5.07673999 56 5 C56 4.67 56 4.34 56 4 C84.215 3.505 84.215 3.505 113 3 C113 2.34 113 1.68 113 1 C75.71 1 38.42 1 0 1 C0 0.67 0 0.34 0 0 Z " fill="#B8BABA" transform="translate(208,89)"/>
<path d="M0 0 C0.33 0 0.66 0 1 0 C-0.12146729 10.76608594 -4.17480356 19.30726807 -12.6875 26.25 C-21.29893168 32.12250121 -29.97215771 33.59266551 -40.21679688 33.48583984 C-41.9676207 33.49153488 -41.9676207 33.49153488 -43.7538147 33.49734497 C-47.57574128 33.50469876 -51.39689213 33.48344966 -55.21875 33.4609375 C-57.88628253 33.45855113 -60.55378335 33.45754668 -63.22131348 33.4581604 C-68.79249574 33.45629568 -74.3634582 33.43903378 -79.93457031 33.41162109 C-86.37349798 33.38005532 -92.81218645 33.36962959 -99.25118589 33.3710922 C-105.46144131 33.3723122 -111.67161911 33.36211439 -117.8818512 33.34550858 C-120.51973502 33.33913603 -123.15762587 33.33520062 -125.79551697 33.33372116 C-129.46992084 33.32940059 -133.14402053 33.31192989 -136.81835938 33.29052734 C-138.45939133 33.2918869 -138.45939133 33.2918869 -140.13357544 33.29327393 C-141.13150116 33.28474396 -142.12942688 33.27621399 -143.15759277 33.26742554 C-144.02546165 33.26407385 -144.89333054 33.26072216 -145.78749847 33.25726891 C-148 33 -148 33 -151 31 C-122.29 31.33 -93.58 31.66 -64 32 C-64 31.34 -64 30.68 -64 30 C-64.66 29.67 -65.32 29.34 -66 29 C-62.25 27 -62.25 27 -60 27 C-101.085 26.505 -101.085 26.505 -143 26 C-143 25.67 -143 25.34 -143 25 C-142.43292171 25.00368717 -141.86584341 25.00737434 -141.28158092 25.01117325 C-127.44143637 25.0997635 -113.60134193 25.16556947 -99.76097393 25.20724869 C-93.06766972 25.22781659 -86.37458348 25.25633102 -79.68139648 25.30175781 C-73.21692206 25.34535562 -66.75264459 25.3691668 -60.28803444 25.37950897 C-57.82698277 25.38687528 -55.36594136 25.40125978 -52.90497398 25.42292023 C-49.44642577 25.45213853 -45.98868192 25.45594819 -42.5300293 25.45410156 C-41.01842728 25.47567322 -41.01842728 25.47567322 -39.47628784 25.49768066 C-30.31070622 25.44504563 -21.35762293 23.2223229 -14.48046875 16.8515625 C-12.13174807 13.91411236 -10.79732944 10.54710562 -9.2578125 7.13671875 C-8 5 -8 5 -4.8125 3.5625 C-3.884375 3.376875 -2.95625 3.19125 -2 3 C-1.34 2.01 -0.68 1.02 0 0 Z " fill="#4B4F51" transform="translate(354,365)"/>
<path d="M0 0 C1.65 0 3.3 0 5 0 C5.13948218 11.91829368 5.24586513 23.83639078 5.31087303 35.75533676 C5.34208564 41.29079932 5.38437379 46.82570037 5.45263672 52.36083984 C5.51818915 57.71013092 5.55378164 63.05888447 5.56926346 68.40854645 C5.58028565 70.44178978 5.60180875 72.47500619 5.63438034 74.50801849 C5.84459575 88.18214145 5.40803799 98.65155292 -4.625 109 C-9.44741166 112.83728866 -15.12175806 114.42267174 -21 116 C-21.33 115.34 -21.66 114.68 -22 114 C-24.64 114 -27.28 114 -30 114 C-30.33 113.34 -30.66 112.68 -31 112 C-29.84242188 111.75765625 -28.68484375 111.5153125 -27.4921875 111.265625 C-25.95297854 110.92774986 -24.41392399 110.58917075 -22.875 110.25 C-22.11445313 110.09273438 -21.35390625 109.93546875 -20.5703125 109.7734375 C-12.76095212 108.02306362 -7.72954425 104.56881146 -3 98 C-0.82662627 92.90950101 -0.69515475 88.30999361 -0.68115234 82.87353516 C-0.67110672 81.97533051 -0.6610611 81.07712585 -0.65071106 80.15170288 C-0.61994267 77.19749563 -0.60286153 74.24337876 -0.5859375 71.2890625 C-0.56722076 69.23496731 -0.54764697 67.18087976 -0.5272522 65.12680054 C-0.47597856 59.73134881 -0.43632725 54.33587217 -0.39910889 48.94030762 C-0.3590394 43.43019471 -0.30796047 37.92018502 -0.2578125 32.41015625 C-0.16110964 21.60684339 -0.07668675 10.80347219 0 0 Z " fill="#C7C9C9" transform="translate(343,275)"/>
<path d="M0 0 C0.73605469 0.34933594 1.47210938 0.69867188 2.23046875 1.05859375 C3.69419922 1.74115234 3.69419922 1.74115234 5.1875 2.4375 C6.15042969 2.88996094 7.11335937 3.34242188 8.10546875 3.80859375 C13.44755855 6.00742963 18.55874997 6.16242872 24.27856445 6.20532227 C25.09859451 6.21522186 25.91862457 6.22512146 26.76350403 6.23532104 C29.46340079 6.26680953 32.16331513 6.29164327 34.86328125 6.31640625 C36.73944038 6.33698671 38.61559499 6.35798347 40.491745 6.37937927 C45.4219699 6.43448715 50.35223587 6.48394607 55.28253174 6.53222656 C60.31664673 6.58252411 65.35070234 6.63816704 70.38476562 6.69335938 C80.25645964 6.80080289 90.1282053 6.90227836 100 7 C99.01 8.32 98.02 9.64 97 11 C96.505 10.01 96.505 10.01 96 9 C95.67 10.32 95.34 11.64 95 13 C84.35086993 13.04647606 73.70176426 13.08194653 63.05255318 13.10362434 C58.10693894 13.11403206 53.16139443 13.12813592 48.21582031 13.15087891 C43.4371663 13.1727151 38.65857908 13.18459125 33.879879 13.18975449 C32.0627627 13.19343097 30.24564979 13.20060992 28.42856216 13.21146011 C19.36738252 13.26338188 10.83572551 13.29427194 2 11 C0.80712589 7.12315913 0 4.08378077 0 0 Z " fill="#11181A" transform="translate(195,384)"/>
<path d="M0 0 C0.33 0 0.66 0 1 0 C1.82655142 19.64774309 2.18109641 39.24211362 1.92285156 58.9050293 C1.87791824 62.43714319 1.86308845 65.96880664 1.85362053 69.50116825 C1.84078853 72.26983448 1.80616546 75.03791853 1.76550674 77.80630302 C1.74275925 79.73663774 1.74337763 81.66720315 1.74459839 83.59767151 C1.55614025 93.18999172 1.55614025 93.18999172 -1.35888672 96.26342773 C-4 98 -4 98 -7 99 C-6.83923477 97.70268448 -6.67846954 96.40536896 -6.51283264 95.06874084 C-5.98910305 90.33466027 -5.82933121 85.65977016 -5.79467773 80.90014648 C-5.78477814 80.04051804 -5.77487854 79.18088959 -5.76467896 78.29521179 C-5.73338924 75.48719932 -5.70843687 72.67917 -5.68359375 69.87109375 C-5.66299604 67.91097097 -5.64199888 65.95085234 -5.62062073 63.99073792 C-5.5656908 58.85671377 -5.51615449 53.72265149 -5.46777344 48.58856201 C-5.41734475 43.33960619 -5.36177073 38.09070505 -5.30664062 32.84179688 C-5.19941527 22.56124475 -5.09789269 12.28064493 -5 2 C-4.34 3.32 -3.68 4.64 -3 6 C-2.34 5.67 -1.68 5.34 -1 5 C-0.34444881 2.47266765 -0.34444881 2.47266765 0 0 Z " fill="#13191C" transform="translate(354,272)"/>
<path d="M0 0 C9.24 0 18.48 0 28 0 C28 0.33 28 0.66 28 1 C19.09 1 10.18 1 1 1 C1 13.54 1 26.08 1 39 C4.3 39 7.6 39 11 39 C11 44.94 11 50.88 11 57 C16.61 57 22.22 57 28 57 C28 60.3 28 63.6 28 67 C18.76 67 9.52 67 0 67 C0 44.89 0 22.78 0 0 Z " fill="#D5D7D7" transform="translate(351,192)"/>
<path d="M0 0 C3.1473168 1.0491056 5.32173049 1.96044661 7.17330933 4.79827881 C8.15473462 7.41210394 8.24059962 9.43647891 8.22705078 12.22753906 C8.22682419 13.78870453 8.22682419 13.78870453 8.22659302 15.38140869 C8.21627045 16.49820007 8.20594788 17.61499146 8.1953125 18.765625 C8.1924826 19.91415955 8.18965271 21.06269409 8.18673706 22.24603271 C8.17554263 25.91412781 8.15043904 29.5819787 8.125 33.25 C8.11496926 35.73697564 8.10584358 38.22395511 8.09765625 40.7109375 C8.07560568 46.80737498 8.04213525 52.90367004 8 59 C8.99 59 9.98 59 11 59 C10.67 65.27 10.34 71.54 10 78 C7.03 78.99 7.03 78.99 4 80 C3.34 79.67 2.68 79.34 2 79 C1.99413376 78.23959915 1.98826752 77.4791983 1.98222351 76.695755 C1.92393793 69.47396638 1.85166193 62.25250879 1.76428509 55.03101826 C1.71985762 51.31977386 1.68054383 47.6086323 1.65356445 43.8972168 C1.62725173 40.30488336 1.58666099 36.71295174 1.53681374 33.12087059 C1.51239713 31.10674097 1.50217335 29.09245498 1.49235535 27.07820129 C1.37410522 19.5490283 0.52166774 12.85768508 -1.55705261 5.60758972 C-2 3 -2 3 0 0 Z " fill="#12171A" transform="translate(347,101)"/>
<path d="M0 0 C0.556875 0.7425 1.11375 1.485 1.6875 2.25 C6.12537126 7.52746852 11.36836705 11.43625994 18.34461784 12.2853756 C21.10569781 12.4076644 23.85313889 12.43643954 26.61694336 12.43237305 C28.18392471 12.44766052 28.18392471 12.44766052 29.78256226 12.46325684 C33.21837771 12.49333096 36.65391409 12.50264449 40.08984375 12.51171875 C42.47881493 12.52856952 44.86777726 12.5467203 47.25672913 12.56611633 C53.53172034 12.61357888 59.80667568 12.64341269 66.08178711 12.66955566 C72.49014366 12.6993799 78.89837668 12.74590391 85.30664062 12.79101562 C97.87102653 12.87700626 110.43544243 12.94493802 123 13 C122.34 13.66 121.68 14.32 121 15 C123.64 15 126.28 15 129 15 C129.33 15.66 129.66 16.32 130 17 C115.08288395 17.14060493 100.16581956 17.24618269 85.24818039 17.31087303 C78.32050072 17.34171799 71.39323448 17.3837166 64.46582031 17.45263672 C57.77436933 17.51917713 51.08343547 17.55375513 44.39163971 17.56926346 C41.84485384 17.5803084 39.29809013 17.6018765 36.75148773 17.63438034 C9.5940941 17.96706944 9.5940941 17.96706944 0.20037842 9.34896851 C-3 5.82071393 -3 5.82071393 -3 3 C-2.01 3 -1.02 3 0 3 C0 2.01 0 1.02 0 0 Z " fill="#D1D3D4" transform="translate(192,373)"/>
<path d="M0 0 C3.5 0.1875 3.5 0.1875 5.5 1.1875 C5.5 16.3675 5.5 31.5475 5.5 47.1875 C2.48675805 48.69412097 -0.18286377 48.36520373 -3.5 48.1875 C-5.9062622 45.7812378 -5.75201459 45.23642823 -5.75878906 41.953125 C-5.76509338 41.07881836 -5.77139771 40.20451172 -5.77789307 39.30371094 C-5.7738446 38.35786133 -5.76979614 37.41201172 -5.765625 36.4375 C-5.76753845 35.46844727 -5.7694519 34.49939453 -5.77142334 33.50097656 C-5.77278579 31.44986715 -5.76908518 29.39874914 -5.76074219 27.34765625 C-5.75004359 24.20032461 -5.76063554 21.0535638 -5.7734375 17.90625 C-5.77211592 15.9166654 -5.76955355 13.92708116 -5.765625 11.9375 C-5.76967346 10.99165039 -5.77372192 10.04580078 -5.77789307 9.07128906 C-5.77158875 8.19698242 -5.76528442 7.32267578 -5.75878906 6.421875 C-5.75719788 5.65069336 -5.75560669 4.87951172 -5.75396729 4.08496094 C-5.24653409 0.29378495 -3.55591029 0.19049519 0 0 Z " fill="#151C1C" transform="translate(281.5,200.8125)"/>
<path d="M0 0 C5.28 0 10.56 0 16 0 C16 0.33 16 0.66 16 1 C11.05 1 6.1 1 1 1 C1 13.54 1 26.08 1 39 C8.62071508 38.58811472 8.62071508 38.58811472 16 37 C18.5808926 37.08744008 21.11691478 37.22868495 23.6875 37.4375 C24.38939453 37.48970703 25.09128906 37.54191406 25.81445312 37.59570312 C27.54338054 37.72507865 29.27175355 37.86182531 31 38 C25.14976415 43.98561321 25.14976415 43.98561321 21 45 C17.7 45 14.4 45 11 45 C11 52.26 11 59.52 11 67 C7.37 67 3.74 67 0 67 C0 44.89 0 22.78 0 0 Z " fill="#D0D3D4" transform="translate(179,192)"/>
<path d="M0 0 C3.96 0 7.92 0 12 0 C12 9.24 12 18.48 12 28 C12.66 28 13.32 28 14 28 C13.65447612 30.55687669 13.24912987 32.57501375 11.9375 34.8125 C8.75444301 36.7634059 5.67569327 36.1807718 2 36 C2 35.34 2 34.68 2 34 C1.34 33.67 0.68 33.34 0 33 C0 22.11 0 11.22 0 0 Z " fill="#0F1617" transform="translate(233,231)"/>
<path d="M0 0 C36.96 0 73.92 0 112 0 C112.495 1.485 112.495 1.485 113 3 C75.65881076 3.77105883 38.34980323 4.15142647 1 4 C0.67 2.68 0.34 1.36 0 0 Z " fill="#F9FCFC" transform="translate(209,90)"/>
<path d="M0 0 C3.3 0 6.6 0 10 0 C10 12.54 10 25.08 10 38 C7.03 38 4.06 38 1 38 C-0.58645357 34.82709287 -0.12078213 31.41174616 -0.09765625 27.9296875 C-0.0962413 27.13345978 -0.09482635 26.33723206 -0.09336853 25.51687622 C-0.08776345 22.9695462 -0.07521014 20.42230353 -0.0625 17.875 C-0.05748565 16.14974085 -0.05292263 14.42448033 -0.04882812 12.69921875 C-0.03779237 8.46611209 -0.02052436 4.23307086 0 0 Z " fill="#FCFDFD" transform="translate(332,193)"/>
<path d="M0 0 C3.63 0 7.26 0 11 0 C11 22.11 11 44.22 11 67 C7.37 67 3.74 67 0 67 C0 57.43 0 47.86 0 38 C3.3 38.33 6.6 38.66 10 39 C10 26.46 10 13.92 10 1 C6.7 1 3.4 1 0 1 C0 0.67 0 0.34 0 0 Z " fill="#DDDFDE" transform="translate(159,192)"/>
<path d="M0 0 C4.29 0 8.58 0 13 0 C13 0.33 13 0.66 13 1 C9.04 1 5.08 1 1 1 C1 13.54 1 26.08 1 39 C3.97 39 6.94 39 10 39 C10.82038591 45.401594 11.12754513 51.61302501 11.0625 58.0625 C11.05798828 58.92810547 11.05347656 59.79371094 11.04882812 60.68554688 C11.03719913 62.79039539 11.01927073 64.89520758 11 67 C7.37 67 3.74 67 0 67 C0 44.89 0 22.78 0 0 Z " fill="#D7DBDA" transform="translate(307,192)"/>
<path d="M0 0 C1.11632812 0.00902344 2.23265625 0.01804688 3.3828125 0.02734375 C4.20523438 0.03894531 5.02765625 0.05054688 5.875 0.0625 C5.875 0.3925 5.875 0.7225 5.875 1.0625 C1.915 1.0625 -2.045 1.0625 -6.125 1.0625 C-6.125 10.3025 -6.125 19.5425 -6.125 29.0625 C-9.755 29.0625 -13.385 29.0625 -17.125 29.0625 C-17.125 19.8225 -17.125 10.5825 -17.125 1.0625 C-11.18640565 0.46864057 -5.86408913 -0.06238393 0 0 Z " fill="#DCDEDF" transform="translate(239.125,229.9375)"/>
<path d="M0 0 C14.80409434 -0.09370222 29.60814909 -0.1641054 44.41248035 -0.20724869 C51.28737654 -0.22781896 58.1620878 -0.25583255 65.03686523 -0.30175781 C71.67637893 -0.34609007 78.31575158 -0.36916503 84.95541954 -0.37950897 C87.48345645 -0.3868768 90.01148335 -0.40126429 92.53943825 -0.42292023 C96.09137951 -0.45212703 99.64253728 -0.45594865 103.19458008 -0.45410156 C104.74826042 -0.47567322 104.74826042 -0.47567322 106.33332825 -0.49768066 C116.23626154 -0.44227197 124.98485448 2.05296963 132.26953125 8.9921875 C135.11157002 12.28972233 137.47481715 15.90784274 139 20 C137.74458443 22.51083114 136.49936512 22.87125446 134 24 C133.608125 22.783125 133.21625 21.56625 132.8125 20.3125 C130.49166884 14.1163187 125.69727187 9.75342749 119.76045227 6.93789673 C116.64050175 5.87785616 114.1249831 5.72204948 110.83276367 5.68115234 C109.61187546 5.66128265 108.39098724 5.64141296 107.13310242 5.62094116 C105.82460831 5.60938995 104.5161142 5.59783875 103.16796875 5.5859375 C101.80746806 5.56721453 100.44697883 5.54764027 99.08650208 5.5272522 C95.51753521 5.47604398 91.94853074 5.43635813 88.37939453 5.39910889 C84.73265365 5.35899799 81.08606766 5.30793808 77.43945312 5.2578125 C70.29308232 5.16118739 63.14661425 5.07673999 56 5 C56 4.67 56 4.34 56 4 C84.215 3.505 84.215 3.505 113 3 C113 2.34 113 1.68 113 1 C75.71 1 38.42 1 0 1 C0 0.67 0 0.34 0 0 Z " fill="#AFB3B4" transform="translate(208,89)"/>
<path d="M0 0 C3.63 0 7.26 0 11 0 C11 9.24 11 18.48 11 28 C7.37 28 3.74 28 0 28 C0 18.76 0 9.52 0 0 Z " fill="#E6E8E8" transform="translate(245,231)"/>
<path d="M0 0 C19.8 0 39.6 0 60 0 C59.67 1.65 59.34 3.3 59 5 C39.86 5 20.72 5 1 5 C0.67 3.35 0.34 1.7 0 0 Z " fill="#E4E7E7" transform="translate(236,373)"/>
<path d="M0 0 C2.64 0 5.28 0 8 0 C10.53054337 2.53054337 10.25683229 3.43548882 10.265625 6.9375 C10.26820313 7.91460937 10.27078125 8.89171875 10.2734375 9.8984375 C10.26570312 10.92195312 10.25796875 11.94546875 10.25 13 C10.25773438 14.02351562 10.26546875 15.04703125 10.2734375 16.1015625 C10.27085937 17.07867187 10.26828125 18.05578125 10.265625 19.0625 C10.26336914 19.96097656 10.26111328 20.85945313 10.25878906 21.78515625 C10 24 10 24 8 26 C5.36 26 2.72 26 0 26 C0 17.42 0 8.84 0 0 Z " fill="#161B1E" transform="translate(191,201)"/>
<path d="M0 0 C0.33 0 0.66 0 1 0 C1.07613738 6.45947714 1.12863649 12.9188383 1.16479492 19.37866211 C1.17987052 21.57564621 1.20033426 23.77260026 1.22631836 25.96948242 C1.26275502 29.12947 1.27973884 32.28905924 1.29296875 35.44921875 C1.30845261 36.42960617 1.32393646 37.40999359 1.33988953 38.42008972 C1.34112563 43.44197449 1.29062171 46.91234189 -2 51 C-2.66 50.67 -3.32 50.34 -4 50 C-4 49.34 -4 48.68 -4 48 C-5.485 48.495 -5.485 48.495 -7 49 C-9.81656132 46.18343868 -9.98950864 44.38398395 -10.09765625 40.42578125 C-10.09103244 39.05465342 -10.07914198 37.68354283 -10.0625 36.3125 C-10.05798828 35.61060547 -10.05347656 34.90871094 -10.04882812 34.18554688 C-10.03706927 32.45699462 -10.01913454 30.72848635 -10 29 C-6.7 29 -3.4 29 0 29 C0 19.43 0 9.86 0 0 Z " fill="#D2D5D6" transform="translate(298,202)"/>
<path d="M0 0 C3.70012175 0.20944085 6.29249738 0.54647268 9.4375 2.5625 C11.66872394 6.04320935 11.79126072 8.97775799 11 13 C9.5 15.5 9.5 15.5 7 17 C1.99328289 17.7152453 0.14563015 17.81148802 -4 14.875 C-6 12 -6 12 -6.625 9 C-5.80352072 5.05689946 -4.01509365 3.57386043 -1 1 C-0.67 0.67 -0.34 0.34 0 0 Z " fill="#E0E2E3" transform="translate(262,267)"/>
<path d="M0 0 C0.66 0 1.32 0 2 0 C2 0.99 2 1.98 2 3 C3.98 2.34 5.96 1.68 8 1 C7.59706775 3.7197927 7.02874615 4.96728887 5.1875 7.0625 C0.96421299 12.73377113 -1.24251534 19.99326694 -2 27 C-5.75 28.125 -5.75 28.125 -8 27 C-8.33 34.26 -8.66 41.52 -9 49 C-9.33 49 -9.66 49 -10 49 C-10.42931109 15.37063138 -10.42931109 15.37063138 -2 2 C-1.34 2 -0.68 2 0 2 C0 1.34 0 0.68 0 0 Z " fill="#2F3336" transform="translate(186,93)"/>
<path d="M0 0 C1.8125 1.8125 1.8125 1.8125 3 4 C2.67 4.99 2.34 5.98 2 7 C2.62648438 6.97679687 3.25296875 6.95359375 3.8984375 6.9296875 C4.71570313 6.91164062 5.53296875 6.89359375 6.375 6.875 C7.18710937 6.85179687 7.99921875 6.82859375 8.8359375 6.8046875 C11 7 11 7 13 9 C12.66226562 9.64066406 12.32453125 10.28132812 11.9765625 10.94140625 C9.41356739 15.91183896 7.30136816 20.55791498 6 26 C5.34 26 4.68 26 4 26 C3.63076923 18.61538462 3.63076923 18.61538462 5.5 15.5 C6.2425 14.7575 6.2425 14.7575 7 14 C3.00534033 11.33689355 0.26106135 11.96545226 -4.40625 12.22265625 C-7 12 -7 12 -8.84375 10.6484375 C-10 9 -10 9 -10 6.5625 C-8.06195749 1.59626608 -5.19569226 0 0 0 Z " fill="#080C0F" transform="translate(275,130)"/>
<path d="M0 0 C10.48684864 -0.37012407 10.48684864 -0.37012407 12.8359375 1.32421875 C14.62432877 3.89878202 14.31745118 5.95246868 14 9 C13.01 10.485 13.01 10.485 12 12 C12.66 13.32 13.32 14.64 14 16 C10 16 10 16 7.9375 14.0625 C7.298125 13.381875 6.65875 12.70125 6 12 C5.01 11.67 4.02 11.34 3 11 C3 12.65 3 14.3 3 16 C2.01 16 1.02 16 0 16 C0 10.72 0 5.44 0 0 Z " fill="#F8FBFC" transform="translate(283,268)"/>
<path d="M0 0 C1.98 0 3.96 0 6 0 C6.07409401 3.95092059 6.12857406 7.90157294 6.16479492 11.85302734 C6.18732251 13.85919374 6.2254357 15.86516526 6.26367188 17.87109375 C6.27817383 19.75634766 6.27817383 19.75634766 6.29296875 21.6796875 C6.3086792 22.84226074 6.32438965 24.00483398 6.34057617 25.20263672 C6.22818604 26.1257666 6.1157959 27.04889648 6 28 C5.01 28.66 4.02 29.32 3 30 C1 29 1 29 -0.125 26.3125 C-2.32060694 17.94499007 -1.35319787 8.45748667 0 0 Z " fill="#0E1518" transform="translate(178,120)"/>
<path d="M0 0 C0.33 0 0.66 0 1 0 C-0.03397592 9.92616883 -3.42613398 17.97128255 -10.95703125 24.765625 C-14.77037627 27.76963675 -18.2262713 29.80656783 -23 31 C-22.67 29.35 -22.34 27.7 -22 26 C-20 26 -18 26 -16 26 C-15.67 25.01 -15.34 24.02 -15 23 C-14.34 23 -13.68 23 -13 23 C-11.90523725 19.71571175 -11.93084972 19.70879033 -12.25 16.4375 C-11.92642934 11.98840345 -10.70563502 8.57176818 -8 5 C-4.875 3.6875 -4.875 3.6875 -2 3 C-1.34 2.01 -0.68 1.02 0 0 Z " fill="#272A2B" transform="translate(354,365)"/>
<path d="M0 0 C0.7425 0.350625 1.485 0.70125 2.25 1.0625 C5.1322726 2.04509293 6.21176345 2.0326802 9 1 C10.125 5.75 10.125 5.75 9 8 C6.24305242 9.18154896 5.13229609 9.04510094 2.25 8.0625 C1.5075 7.711875 0.765 7.36125 0 7 C0 7.99 0 8.98 0 10 C-1.32 9.67 -2.64 9.34 -4 9 C-3.67 8.67 -3.34 8.34 -3 8 C-8.28 7.67 -13.56 7.34 -19 7 C-19.33 5.68 -19.66 4.36 -20 3 C-13.4 3 -6.8 3 0 3 C0 2.01 0 1.02 0 0 Z " fill="#121619" transform="translate(279,97)"/>
<path d="M0 0 C1.0725 0.2475 2.145 0.495 3.25 0.75 C3.58 2.07 3.91 3.39 4.25 4.75 C1.94 4.75 -0.37 4.75 -2.75 4.75 C-2.1725 5.018125 -1.595 5.28625 -1 5.5625 C1.37367963 6.81527536 3.31206571 7.88127765 5.25 9.75 C5.74852135 12.59869344 5.65319823 14.06219126 4.1875 16.5625 C1.18702602 18.40150018 -1.31481613 18.05671285 -4.75 17.75 C-5.74 17.09 -6.73 16.43 -7.75 15.75 C-7.42 14.76 -7.09 13.77 -6.75 12.75 C-4.11 12.75 -1.47 12.75 1.25 12.75 C0.6725 12.46125 0.095 12.1725 -0.5 11.875 C-1.2425 11.50375 -1.985 11.1325 -2.75 10.75 C-3.471875 10.481875 -4.19375 10.21375 -4.9375 9.9375 C-6.75 8.75 -6.75 8.75 -7.75 6.375 C-7.75 3.75 -7.75 3.75 -6.25 1.375 C-3.75 -0.25 -3.75 -0.25 0 0 Z " fill="#ECF0F2" transform="translate(220.75,267.25)"/>
<path d="M0 0 C4.29 0 8.58 0 13 0 C13 0.99 13 1.98 13 3 C10.03 3 7.06 3 4 3 C4 4.32 4 5.64 4 7 C6.31 7 8.62 7 11 7 C11 7.99 11 8.98 11 10 C8.69 10 6.38 10 4 10 C4 10.99 4 11.98 4 13 C6.97 13 9.94 13 13 13 C13 13.99 13 14.98 13 16 C8.71 16 4.42 16 0 16 C0 10.72 0 5.44 0 0 Z " fill="#F8FCFD" transform="translate(307,268)"/>
<path d="M0 0 C1.65 0 3.3 0 5 0 C5 23.76 5 47.52 5 72 C4.67 72 4.34 72 4 72 C4 51.54 4 31.08 4 10 C3.01 10.33 2.02 10.66 1 11 C0.67 14.3 0.34 17.6 0 21 C-0.33 21 -0.66 21 -1 21 C-1.02895976 17.87501937 -1.04678483 14.7500731 -1.0625 11.625 C-1.07087891 10.73554688 -1.07925781 9.84609375 -1.08789062 8.9296875 C-1.09111328 8.07890625 -1.09433594 7.228125 -1.09765625 6.3515625 C-1.10289307 5.56604004 -1.10812988 4.78051758 -1.11352539 3.97119141 C-1 2 -1 2 0 0 Z " fill="#BEBFBE" transform="translate(185,272)"/>
<path d="M0 0 C0.74507812 0.05671875 1.49015625 0.1134375 2.2578125 0.171875 C4.08935108 0.31276258 5.91981352 0.46751884 7.75 0.625 C3.7320721 4.98732172 0.85815261 7.4152731 -5.14453125 7.8203125 C-6.58892578 7.78550781 -6.58892578 7.78550781 -8.0625 7.75 C-9.52623047 7.72292969 -9.52623047 7.72292969 -11.01953125 7.6953125 C-11.75558594 7.67210937 -12.49164063 7.64890625 -13.25 7.625 C-13.58 8.285 -13.91 8.945 -14.25 9.625 C-15.24 8.965 -16.23 8.305 -17.25 7.625 C-15.25 4.625 -15.25 4.625 -13.125 3.9375 C-12.50625 3.834375 -11.8875 3.73125 -11.25 3.625 C-11.58 2.965 -11.91 2.305 -12.25 1.625 C-8.37328894 -1.04789025 -4.45732397 -0.39375653 0 0 Z " fill="#E0E3E2" transform="translate(202.25,229.375)"/>
<path d="M0 0 C3.82622743 1.5588334 6.25147379 3.95433582 9 7 C9.33 7.99 9.66 8.98 10 10 C10.66 10 11.32 10 12 10 C15 14.38461538 15 14.38461538 15 17 C12 16 12 16 10 15 C9.01 15.99 8.02 16.98 7 18 C6.1646875 16.700625 6.1646875 16.700625 5.3125 15.375 C3.09747202 12.04054927 0.60395067 9.03794244 -2 6 C-1.67 5.195625 -1.34 4.39125 -1 3.5625 C0.06059041 1.30318875 0.06059041 1.30318875 0 0 Z " fill="#2C2F32" transform="translate(337,87)"/>
<path d="M0 0 C0.61875 0.66 1.2375 1.32 1.875 2 C3.75637427 4.2284549 3.75637427 4.2284549 6 4 C6.33 5.32 6.66 6.64 7 8 C1.37743903 12.58682606 -0.88832156 13.11470449 -8 13 C-7.34 11.68 -6.68 10.36 -6 9 C-6.99 8.34 -7.98 7.68 -9 7 C-8.01 7 -7.02 7 -6 7 C-5.67 6.01 -5.34 5.02 -5 4 C-3.35 4 -1.7 4 0 4 C0 2.68 0 1.36 0 0 Z " fill="#E8EAE9" transform="translate(288,246)"/>
<path d="M0 0 C4.29 0 8.58 0 13 0 C13 0.99 13 1.98 13 3 C11.35 3 9.7 3 8 3 C8 7.29 8 11.58 8 16 C6.68 16 5.36 16 4 16 C4 12.04 4 8.08 4 4 C2.35 4 0.7 4 -1 4 C-0.67 2.68 -0.34 1.36 0 0 Z " fill="#ECEEF0" transform="translate(235,268)"/>
<path d="M0 0 C1.98 0 3.96 0 6 0 C6.99 2.475 6.99 2.475 8 5 C-13.45 4.67 -34.9 4.34 -57 4 C-57 3.67 -57 3.34 -57 3 C-28.785 2.505 -28.785 2.505 0 2 C0 1.34 0 0.68 0 0 Z " fill="#D8DEDF" transform="translate(321,90)"/>
<path d="M0 0 C2.475 0.495 2.475 0.495 5 1 C5 1.99 5 2.98 5 4 C5.66 4 6.32 4 7 4 C7 3.01 7 2.02 7 1 C9.73919656 2.00437207 10.80379547 2.62824404 12.1875 5.25 C13.04585938 8.15521637 13.5816101 11.00153902 14 14 C11.525 13.01 11.525 13.01 9 12 C9 11.34 9 10.68 9 10 C8.443125 9.773125 7.88625 9.54625 7.3125 9.3125 C4.31958801 7.61382022 2.26472763 5.57927313 0 3 C0 2.01 0 1.02 0 0 Z " fill="#2F3437" transform="translate(183,380)"/>
<path d="M0 0 C3.1305429 -0.39964378 5.13083761 -0.52149743 7.875 1.125 C9.54663625 3.91106042 9.46376624 5.81988862 9 9 C7 10.875 7 10.875 5 12 C5 10.66666667 5 9.33333333 5 8 C3.02 8 1.04 8 -1 8 C-1.625 5.6875 -1.625 5.6875 -2 3 C-1.34 2.01 -0.68 1.02 0 0 Z " fill="#F3F5F7" transform="translate(288,268)"/>
<path d="M0 0 C0.99 0.33 1.98 0.66 3 1 C3.31424507 4.45669582 3.37956836 6.39901677 1.5 9.375 C-1.99868599 11.6491459 -4.93689536 11.83090074 -9 11 C-11.5625 9.25 -11.5625 9.25 -13 7 C-12.75 4.75 -12.75 4.75 -12 3 C-11.34 3 -10.68 3 -10 3 C-8.375 5 -8.375 5 -7 7 C-5.35 6.67 -3.7 6.34 -2 6 C-1.34 4.02 -0.68 2.04 0 0 Z " fill="#F1F5F7" transform="translate(270,273)"/>
<path d="M0 0 C0.556875 0.7425 1.11375 1.485 1.6875 2.25 C4.94125296 6.11932784 8.37122859 8.94276826 13 11 C12.67 11.99 12.34 12.98 12 14 C9 15 9 15 6.84375 13.92578125 C6.0703125 13.39339844 5.296875 12.86101562 4.5 12.3125 C3.7265625 11.79300781 2.953125 11.27351563 2.15625 10.73828125 C-0.01814869 8.98536926 -1.50511084 7.3525339 -3 5 C-3 4.34 -3 3.68 -3 3 C-2.01 3 -1.02 3 0 3 C0 2.01 0 1.02 0 0 Z " fill="#CBCECF" transform="translate(192,373)"/>
<path d="M0 0 C2 1 2 1 2 1 Z M-1 1 C0.4606285 3.64738916 1 4.89448334 1 8 C0.67 7.67 0.34 7.34 0 7 C-0.86625 8.2065625 -0.86625 8.2065625 -1.75 9.4375 C-4.00453759 12.00516781 -4.71605414 12.67160541 -8 13 C-8.66 13 -9.32 13 -10 13 C-10 13.99 -10 14.98 -10 16 C-10.99 16 -11.98 16 -13 16 C-12.73993558 12.21281184 -12.4482956 10.45841339 -9.75 7.69921875 C-8.8425 7.03535156 -7.935 6.37148438 -7 5.6875 C-6.0925 5.01074219 -5.185 4.33398438 -4.25 3.63671875 C-3.5075 3.09660156 -2.765 2.55648438 -2 2 C-1.67 1.67 -1.34 1.34 -1 1 Z " fill="#131718" transform="translate(342,379)"/>
<path d="M0 0 C6.27 0 12.54 0 19 0 C18.67 1.32 18.34 2.64 18 4 C12.39 4 6.78 4 1 4 C0.67 2.68 0.34 1.36 0 0 Z " fill="#D7DBDD" transform="translate(259,100)"/>
<path d="M0 0 C0.05379226 2.95857409 0.09357093 5.91617721 0.125 8.875 C0.14175781 9.71675781 0.15851563 10.55851562 0.17578125 11.42578125 C0.18222656 12.23144531 0.18867188 13.03710938 0.1953125 13.8671875 C0.20578613 14.61081543 0.21625977 15.35444336 0.22705078 16.12060547 C0 18 0 18 -2 20 C-2.66 19.67 -3.32 19.34 -4 19 C-4 13.06 -4 7.12 -4 1 C-1 0 -1 0 0 0 Z " fill="#D1D1D1" transform="translate(348,275)"/>
<path d="M0 0 C0.99 0 1.98 0 3 0 C3.33 1.32 3.66 2.64 4 4 C4.99 3.67 5.98 3.34 7 3 C10 3 10 3 12 4 C11.51789063 4.47050781 11.03578125 4.94101563 10.5390625 5.42578125 C9.90742188 6.04839844 9.27578125 6.67101562 8.625 7.3125 C7.99851562 7.92738281 7.37203125 8.54226562 6.7265625 9.17578125 C4.81913393 11.08812528 4.81913393 11.08812528 3 14 C1.68 13.34 0.36 12.68 -1 12 C-0.46375 11.2575 0.0725 10.515 0.625 9.75 C1.07875 8.8425 1.5325 7.935 2 7 C1.25827123 4.84982472 1.25827123 4.84982472 0 3 C0 2.01 0 1.02 0 0 Z " fill="#34393B" transform="translate(281,157)"/>
<path d="M0 0 C2.33294775 -0.04241723 4.66702567 -0.04092937 7 0 C8 1 8 1 8.25 3.9375 C8.1675 4.948125 8.085 5.95875 8 7 C5 9 5 9 2.9375 8.75 C1 8 1 8 -1 6 C-0.625 2.875 -0.625 2.875 0 0 Z " fill="#171E21" transform="translate(261,272)"/>
<path d="M0 0 C2.51884651 2.51884651 2.8257588 4.43644242 3.6875 7.875 C3.95949219 8.92429688 4.23148437 9.97359375 4.51171875 11.0546875 C4.97689205 13.86061284 5.09381536 15.40143312 4 18 C3.34 18.33 2.68 18.66 2 19 C1.53476937 20.89533342 1.53476937 20.89533342 1.375 23.0625 C1.25125 24.361875 1.1275 25.66125 1 27 C0.67 27 0.34 27 0 27 C0 18.09 0 9.18 0 0 Z " fill="#4A4C4F" transform="translate(317,213)"/>
<path d="M0 0 C-0.66 1.98 -1.32 3.96 -2 6 C-1.34 6.33 -0.68 6.66 0 7 C-2.40545638 8.20272819 -3.94996953 8.10071472 -6.625 8.0625 C-7.85089844 8.04896484 -7.85089844 8.04896484 -9.1015625 8.03515625 C-10.04128906 8.01775391 -10.04128906 8.01775391 -11 8 C-10.34 7.01 -9.68 6.02 -9 5 C-9.66 4.01 -10.32 3.02 -11 2 C-9.54494642 1.47007308 -8.08581873 0.9513211 -6.625 0.4375 C-5.81289063 0.14746094 -5.00078125 -0.14257812 -4.1640625 -0.44140625 C-2 -1 -2 -1 0 0 Z " fill="#202426" transform="translate(331,389)"/>
<path d="M0 0 C1.14879639 0.48218994 1.14879639 0.48218994 2.32080078 0.97412109 C7.20832761 2.33692054 11.8152942 2.3555373 16.8671875 2.4140625 C17.90191193 2.43342865 18.93663635 2.4527948 20.00271606 2.4727478 C23.29339467 2.53231842 26.58410868 2.57883905 29.875 2.625 C32.11199405 2.66320048 34.34897372 2.70225341 36.5859375 2.7421875 C42.05716358 2.83800138 47.52847695 2.92311431 53 3 C52.67 3.99 52.34 4.98 52 6 C51.01 5.67 50.02 5.34 49 5 C47.53322179 4.89602937 46.06239039 4.84433057 44.59204102 4.82641602 C43.70424454 4.81292618 42.81644806 4.79943634 41.90174866 4.78553772 C40.94546066 4.77509933 39.98917267 4.76466095 39.00390625 4.75390625 C36.98111536 4.72097423 34.95832901 4.68776248 32.93554688 4.65429688 C29.74474137 4.60684173 26.55395512 4.56239502 23.36303711 4.52319336 C20.28480066 4.48350025 17.2069374 4.43195597 14.12890625 4.37890625 C13.17464249 4.3704921 12.22037872 4.36207794 11.23719788 4.35340881 C10.34624924 4.33676682 9.4553006 4.32012482 8.53735352 4.30297852 C7.36511986 4.28751732 7.36511986 4.28751732 6.16920471 4.27174377 C3.75298028 3.96905499 2.10203743 3.20147659 0 2 C0 1.34 0 0.68 0 0 Z " fill="#9A9C9F" transform="translate(226,108)"/>
<path d="M0 0 C3.49842535 3.03196864 4.91982058 5.49925243 6 10 C6.125 13.375 6.125 13.375 6 16 C5.67 16 5.34 16 5 16 C5 14.35 5 12.7 5 11 C3.68 11.33 2.36 11.66 1 12 C0.34 10.02 -0.32 8.04 -1 6 C-1.45375 6.495 -1.9075 6.99 -2.375 7.5 C-4 9 -4 9 -6 9 C-4.47291037 5.56404834 -2.40072955 2.88087546 0 0 Z " fill="#0B1112" transform="translate(337,103)"/>
<path d="M0 0 C-0.34455198 3.10096781 -0.84817294 4.79937138 -2.75 7.3125 C-5.41238939 9.30929204 -6.74952319 9.36116409 -10 9 C-9.70820766 5.49849196 -9.21713533 4.21713533 -6.6875 1.6875 C-4 0 -4 0 0 0 Z " fill="#E5E9EA" transform="translate(275,130)"/>
<path d="M0 0 C0.33 0 0.66 0 1 0 C1.33 3.63 1.66 7.26 2 11 C2.66 11 3.32 11 4 11 C4 11.66 4 12.32 4 13 C6.97 13 9.94 13 13 13 C13 13.99 13 14.98 13 16 C8.71 16 4.42 16 0 16 C0 10.72 0 5.44 0 0 Z " fill="#E6EBED" transform="translate(307,268)"/>
<path d="M0 0 C0.99 0.66 1.98 1.32 3 2 C2.67 4.31 2.34 6.62 2 9 C-2.455 9.495 -2.455 9.495 -7 10 C-7.66 9.01 -8.32 8.02 -9 7 C-7.88625 6.6596875 -7.88625 6.6596875 -6.75 6.3125 C-3.48860409 4.75592468 -2.07105025 2.91481146 0 0 Z M2 5 C3.32 5 4.64 5 6 5 C5.67 5.66 5.34 6.32 5 7 C4.01 6.34 3.02 5.68 2 5 Z " fill="#101417" transform="translate(275,132)"/>
<path d="M0 0 C0.66 0.66 1.32 1.32 2 2 C1.67 2.515625 1.34 3.03125 1 3.5625 C-0.32010877 6.78026512 -0.13242105 9.5570528 0 13 C-0.886875 12.21625 -1.77375 11.4325 -2.6875 10.625 C-5.30720519 8.42843009 -7.71715601 7.06209659 -11 6 C-10.67 5.34 -10.34 4.68 -10 4 C-8.906875 4.0825 -7.81375 4.165 -6.6875 4.25 C-2.96557142 4.41103961 -2.96557142 4.41103961 -1.0625 2 C-0.711875 1.34 -0.36125 0.68 0 0 Z " fill="#0F1214" transform="translate(228,267)"/>
<path d="M0 0 C3 1 3 1 6 3 C6 3.99 6 4.98 6 6 C5.01 6.495 5.01 6.495 4 7 C3.67 7.99 3.34 8.98 3 10 C2.01 10.33 1.02 10.66 0 11 C-1.7578125 5.04296875 -1.7578125 5.04296875 -2 3 C-1.34 2.01 -0.68 1.02 0 0 Z " fill="#191D21" transform="translate(347,101)"/>
<path d="M0 0 C0.66 0.33 1.32 0.66 2 1 C0.97379138 3.2102955 -0.05716794 5.07317497 -1.5625 7 C-3.12826104 8.89155226 -3.12826104 8.89155226 -3.4375 11.125 C-4 13 -4 13 -6.0625 14.25 C-6.701875 14.4975 -7.34125 14.745 -8 15 C-7.85562749 8.07011948 -4.77744657 4.80239407 0 0 Z " fill="#464A4B" transform="translate(199,98)"/>
<path d="M0 0 C1.32 0.33 2.64 0.66 4 1 C4 1.66 4 2.32 4 3 C-0.13041773 6.8578521 -4.48364034 9.62091009 -10 11 C-9.67 9.35 -9.34 7.7 -9 6 C-7 6 -5 6 -3 6 C-2.67 5.01 -2.34 4.02 -2 3 C-1.34 3 -0.68 3 0 3 C0 2.01 0 1.02 0 0 Z " fill="#484C4E" transform="translate(341,385)"/>
<path d="M0 0 C0.33 4.29 0.66 8.58 1 13 C-0.32 13 -1.64 13 -3 13 C-3 9.04 -3 5.08 -3 1 C-1 0 -1 0 0 0 Z " fill="#DFE2E1" transform="translate(347,166)"/>
<path d="M0 0 C0.66 0 1.32 0 2 0 C2.33 2.97 2.66 5.94 3 9 C1.68 9 0.36 9 -1 9 C-2.4606285 6.35261084 -3 5.10551666 -3 2 C-2.01 2 -1.02 2 0 2 C0 1.34 0 0.68 0 0 Z " fill="#D3D6D7" transform="translate(189,367)"/>
<path d="M0 0 C0.33 0.99 0.66 1.98 1 3 C1.99 3.33 2.98 3.66 4 4 C4.33 4.66 4.66 5.32 5 6 C4.67 6.99 4.34 7.98 4 9 C2.35 9.33 0.7 9.66 -1 10 C-2.15837626 5.94568308 -1.83691257 3.78187881 0 0 Z " fill="#2A2F30" transform="translate(226,278)"/>
<path d="M0 0 C0.99 0 1.98 0 3 0 C1.5661989 5.01830384 -0.7898897 7.13712499 -5 10 C-7.375 9.8125 -7.375 9.8125 -9 9 C-8.67 8.34 -8.34 7.68 -8 7 C-6.35 7 -4.7 7 -3 7 C-2.814375 5.824375 -2.814375 5.824375 -2.625 4.625 C-2 2 -2 2 0 0 Z " fill="#474A4D" transform="translate(390,261)"/>
<path d="M0 0 C1.98 0 3.96 0 6 0 C6.66 1.65 7.32 3.3 8 5 C3.05 4.67 -1.9 4.34 -7 4 C-7 3.67 -7 3.34 -7 3 C-3.535 2.505 -3.535 2.505 0 2 C0 1.34 0 0.68 0 0 Z " fill="#E1E5E4" transform="translate(321,90)"/>
<path d="M0 0 C1.98 0 3.96 0 6 0 C6.33 1.65 6.66 3.3 7 5 C5.02 5 3.04 5 1 5 C0.67 3.35 0.34 1.7 0 0 Z " fill="#2F3136" transform="translate(286,271)"/>
<path d="M0 0 C2.97 0 5.94 0 9 0 C3.85714286 5.57142857 3.85714286 5.57142857 0 6 C0 4.02 0 2.04 0 0 Z " fill="#D2D4D5" transform="translate(201,230)"/>
<path d="M0 0 C2.64 0.33 5.28 0.66 8 1 C7.67 1.66 7.34 2.32 7 3 C7.66 3.66 8.32 4.32 9 5 C2.375 5.25 2.375 5.25 -1 3 C-0.67 2.01 -0.34 1.02 0 0 Z " fill="#DFE3E6" transform="translate(214,280)"/>
<path d="M0 0 C0.33 0.66 0.66 1.32 1 2 C1.99 1.67 2.98 1.34 4 1 C3.3125 3.4375 3.3125 3.4375 2 6 C-0.625 6.8125 -0.625 6.8125 -3 7 C-2.25 2.25 -2.25 2.25 0 0 Z " fill="#D1D3D4" transform="translate(339,375)"/>
<path d="M0 0 C2.97 0 5.94 0 9 0 C8.34 1.32 7.68 2.64 7 4 C4.69 4 2.38 4 0 4 C0 2.68 0 1.36 0 0 Z " fill="#393E3F" transform="translate(311,271)"/>
<path d="M0 0 C0.33 0 0.66 0 1 0 C1 2.64 1 5.28 1 8 C2.32 7.67 3.64 7.34 5 7 C5 7.99 5 8.98 5 10 C2.08291076 11.98362069 0.87619096 11.9876191 -2.75 11.625 C-3.8225 11.41875 -4.895 11.2125 -6 11 C-6 10.67 -6 10.34 -6 10 C-4.02 10 -2.04 10 0 10 C0 6.7 0 3.4 0 0 Z " fill="#0E1415" transform="translate(170,249)"/>
<path d="M0 0 C1.65 0 3.3 0 5 0 C5 2.64 5 5.28 5 8 C4.67 6.68 4.34 5.36 4 4 C2.68 4 1.36 4 0 4 C-0.33 4.99 -0.66 5.98 -1 7 C-0.67 4.69 -0.34 2.38 0 0 Z " fill="#7E7E7D" transform="translate(185,272)"/>
<path d="M0 0 C0.99 0.33 1.98 0.66 3 1 C2.01 4.3 1.02 7.6 0 11 C-0.66 11 -1.32 11 -2 11 C-2.25 3.375 -2.25 3.375 0 0 Z " fill="#1F2122" transform="translate(281,145)"/>
<path d="M0 0 C2.0625 0.4375 2.0625 0.4375 4 1 C3.67 2.65 3.34 4.3 3 6 C1.68 5.67 0.36 5.34 -1 5 C-1 1 -1 1 0 0 Z " fill="#E7EAEC" transform="translate(285,98)"/>
<path d="M0 0 C2.97 0.495 2.97 0.495 6 1 C6.33 2.65 6.66 4.3 7 6 C5.35 6.66 3.7 7.32 2 8 C1.34 5.36 0.68 2.72 0 0 Z " fill="#C7CBCC" transform="translate(340,105)"/>
<path d="M0 0 C0.33 0 0.66 0 1 0 C0.25 6.75 0.25 6.75 -2 9 C-2.33 8.34 -2.66 7.68 -3 7 C-3.99 7.495 -3.99 7.495 -5 8 C-5.33 7.01 -5.66 6.02 -6 5 C-5.195625 4.54625 -4.39125 4.0925 -3.5625 3.625 C-0.91143428 2.25274335 -0.91143428 2.25274335 0 0 Z " fill="#414544" transform="translate(354,365)"/>
<path d="M0 0 C0.99 0 1.98 0 3 0 C1.47291037 3.43595166 -0.59927045 6.11912454 -3 9 C-3.66 8.67 -4.32 8.34 -5 8 C-1.125 1.125 -1.125 1.125 0 0 Z " fill="#656C6F" transform="translate(260,130)"/>
<path d="M0 0 C-1.32 2.64 -2.64 5.28 -4 8 C-4.33 6.68 -4.66 5.36 -5 4 C-5.99 3.67 -6.98 3.34 -8 3 C-5.53387212 -0.1151089 -3.89156016 -0.31553191 0 0 Z " fill="#131A1C" transform="translate(306,110)"/>
<path d="M0 0 C6.6 0 13.2 0 20 0 C19.67 0.99 19.34 1.98 19 3 C18.01 2.67 17.02 2.34 16 2 C13.26710707 1.77202438 10.54957796 1.58331813 7.8125 1.4375 C7.06291016 1.39431641 6.31332031 1.35113281 5.54101562 1.30664062 C3.69421625 1.20077315 1.84713166 1.0999024 0 1 C0 0.67 0 0.34 0 0 Z " fill="#808585" transform="translate(259,111)"/>
<path d="M0 0 C2 5.75 2 5.75 2 8 C1.34 8 0.68 8 0 8 C-0.66 7.01 -1.32 6.02 -2 5 C-2.99 4.34 -3.98 3.68 -5 3 C-2.25 0 -2.25 0 0 0 Z " fill="#050A0D" transform="translate(290,94)"/>
<path d="M0 0 C0.66 0.33 1.32 0.66 2 1 C-0.75 5.875 -0.75 5.875 -3 7 C-4.13350534 9.01669827 -4.13350534 9.01669827 -5 11 C-5.3125 7.75 -5.3125 7.75 -5 4 C-2.5 1.5625 -2.5 1.5625 0 0 Z " fill="#35393C" transform="translate(195,356)"/>
<path d="M0 0 C0 4.71449589 -3.07505492 7.049362 -6.25 10.3125 C-7.11625 11.1478125 -7.11625 11.1478125 -8 12 C-6.79444959 5.85169289 -5.08441876 3.64751781 0 0 Z " fill="#232827" transform="translate(225,320)"/>
<path d="M0 0 C2.475 0.495 2.475 0.495 5 1 C4.67 2.32 4.34 3.64 4 5 C2.68 5 1.36 5 0 5 C0 3.35 0 1.7 0 0 Z " fill="#0C1012" transform="translate(287,280)"/>
<path d="M0 0 C0.33 0 0.66 0 1 0 C1.33 4.62 1.66 9.24 2 14 C0.11638447 11.17457671 -0.31902686 10.18940682 -0.6875 7 C-0.77386719 6.319375 -0.86023438 5.63875 -0.94921875 4.9375 C-1 3 -1 3 0 0 Z " fill="#232628" transform="translate(330,217)"/>
<path d="M0 0 C1.9375 0.8125 1.9375 0.8125 4 2 C4.33 2.99 4.66 3.98 5 5 C3.68 5.33 2.36 5.66 1 6 C0.01 4.68 -0.98 3.36 -2 2 C-1.34 1.34 -0.68 0.68 0 0 Z " fill="#DDDFDF" transform="translate(337,97)"/>
<path d="M0 0 C2 1 2 1 2 1 Z M-1 1 C0.4606285 3.64738916 1 4.89448334 1 8 C0.67 7.67 0.34 7.34 0 7 C-0.66 7.66 -1.32 8.32 -2 9 C-2.66 8.01 -3.32 7.02 -4 6 C-3.01 4.35 -2.02 2.7 -1 1 Z " fill="#0E1112" transform="translate(342,379)"/>
<path d="M0 0 C0.99 1.32 1.98 2.64 3 4 C2.01 5.485 2.01 5.485 1 7 C-0.32 6.34 -1.64 5.68 -3 5 C-3 4.34 -3 3.68 -3 3 C-2.01 3 -1.02 3 0 3 C0 2.01 0 1.02 0 0 Z " fill="#CDD1D3" transform="translate(192,373)"/>
<path d="M0 0 C0 0.33 0 0.66 0 1 C-2.64 1.33 -5.28 1.66 -8 2 C-8.66 1.01 -9.32 0.02 -10 -1 C-6.18510326 -2.46726798 -3.70988378 -1.43336419 0 0 Z " fill="#35373A" transform="translate(276,140)"/>
<path d="M0 0 C1.32 0.66 2.64 1.32 4 2 C2.68 3.32 1.36 4.64 0 6 C-0.99 4.68 -1.98 3.36 -3 2 C-2.01 1.34 -1.02 0.68 0 0 Z " fill="#BBBFC0" transform="translate(194,378)"/>
<path d="M0 0 C0.99 0 1.98 0 3 0 C3 1.32 3 2.64 3 4 C0 6.25 0 6.25 -3 8 C-1.125 2.25 -1.125 2.25 0 0 Z " fill="#262A2B" transform="translate(235,304)"/>
<path d="M0 0 C0 1.65 0 3.3 0 5 C-1.32 5.33 -2.64 5.66 -4 6 C-4 4.35 -4 2.7 -4 1 C-1 0 -1 0 0 0 Z " fill="#B6B7B5" transform="translate(348,275)"/>
<path d="M0 0 C2 3 2 3 1.75 5.125 C1 7 1 7 -1 8 C-1.625 5.6875 -1.625 5.6875 -2 3 C-1.34 2.01 -0.68 1.02 0 0 Z " fill="#0E1316" transform="translate(212,271)"/>
<path d="M0 0 C0.33 0 0.66 0 1 0 C1 3.63 1 7.26 1 11 C-0.32 9.68 -1.64 8.36 -3 7 C-2.1654738 4.49642139 -1.20628008 2.33214148 0 0 Z " fill="#0B1314" transform="translate(306,267)"/>
<path d="M0 0 C1.32 0.33 2.64 0.66 4 1 C4 2.32 4 3.64 4 5 C2.68 5 1.36 5 0 5 C0 3.35 0 1.7 0 0 Z " fill="#E1E4E4" transform="translate(188,371)"/>
<path d="M0 0 C2.5654594 2.5654594 2.54046087 4.47686668 3 8 C2.01 8.33 1.02 8.66 0 9 C0 6.03 0 3.06 0 0 Z " fill="#2A2E30" transform="translate(318,216)"/>
<path d="M0 0 C0.99 0 1.98 0 3 0 C3.185625 0.9590625 3.185625 0.9590625 3.375 1.9375 C3.684375 2.9584375 3.684375 2.9584375 4 4 C4.66 4.33 5.32 4.66 6 5 C4.35 4.67 2.7 4.34 1 4 C0.67 2.68 0.34 1.36 0 0 Z " fill="#282B2D" transform="translate(281,157)"/>
</svg>
